<?xml version="1.0" standalone="no"?>

<svg xmlns="http://www.w3.org/2000/svg">
  <metadata>
    Pixelspace v0.1 — a 5x7 pixel font with 316 glyphs.
    Covers GF-latin-core (Latin-1 Supplement, Latin Extended-A, Latin Extended-B,
    General Punctuation, Currency, Spacing modifiers, and combining diacritics).
    Designed as an SVG font for import into FontForge, Glyphs, or other editors.
    Grid: 5 columns x 7 rows. 1 pixel = 125 font units. units-per-em = 875.
    Baseline at row 5 (0-indexed from top).
    Advance width = 750 (5 pixels + 1 pixel right bearing).
  </metadata>
  <defs>
    <font id="Pixelspace" horiz-adv-x="750">
      <font-face font-family="Pixelspace" font-weight="400" font-stretch="normal" units-per-em="875" ascent="625" descent="-250" cap-height="625" x-height="500" bbox="0 -250 625 625" panose-1="2 0 5 9 0 0 0 0 0 0" underline-position="-188" underline-thickness="125"></font-face>
      <missing-glyph horiz-adv-x="750" d="M0,625h125v-125h-125ZM125,625h125v-125h-125ZM250,625h125v-125h-125ZM375,625h125v-125h-125ZM500,625h125v-125h-125ZM0,-125h125v-125h-125ZM125,-125h125v-125h-125ZM250,-125h125v-125h-125ZM375,-125h125v-125h-125ZM500,-125h125v-125h-125ZM0,500h125v-125h-125ZM500,500h125v-125h-125ZM0,375h125v-125h-125ZM500,375h125v-125h-125ZM0,250h125v-125h-125ZM500,250h125v-125h-125ZM0,125h125v-125h-125ZM500,125h125v-125h-125ZM0,0h125v-125h-125ZM500,0h125v-125h-125Z"></missing-glyph>
    <glyph glyph-name="space" unicode=" " horiz-adv-x="750"></glyph>
    <glyph glyph-name="uni0021" unicode="!" horiz-adv-x="750" d="M250,625h125v-125h-125ZM250,500h125v-125h-125ZM250,375h125v-125h-125ZM250,250h125v-125h-125ZM250,125h125v-125h-125ZM250,-125h125v-125h-125Z"></glyph>
    <glyph glyph-name="uni0022" unicode="&#34;" horiz-adv-x="750" d="M125,625h125v-125h-125ZM375,625h125v-125h-125ZM125,500h125v-125h-125ZM375,500h125v-125h-125Z"></glyph>
    <glyph glyph-name="uni0023" unicode="#" horiz-adv-x="750" d="M125,625h125v-125h-125ZM375,625h125v-125h-125ZM125,500h125v-125h-125ZM375,500h125v-125h-125ZM0,375h125v-125h-125ZM125,375h125v-125h-125ZM250,375h125v-125h-125ZM375,375h125v-125h-125ZM500,375h125v-125h-125ZM125,250h125v-125h-125ZM375,250h125v-125h-125ZM0,125h125v-125h-125ZM125,125h125v-125h-125ZM250,125h125v-125h-125ZM375,125h125v-125h-125ZM500,125h125v-125h-125ZM125,0h125v-125h-125ZM375,0h125v-125h-125ZM125,-125h125v-125h-125ZM375,-125h125v-125h-125Z"></glyph>
    <glyph glyph-name="uni0024" unicode="$" horiz-adv-x="750" d="M250,625h125v-125h-125ZM125,500h125v-125h-125ZM250,500h125v-125h-125ZM375,500h125v-125h-125ZM500,500h125v-125h-125ZM0,375h125v-125h-125ZM250,375h125v-125h-125ZM125,250h125v-125h-125ZM250,250h125v-125h-125ZM375,250h125v-125h-125ZM250,125h125v-125h-125ZM500,125h125v-125h-125ZM0,0h125v-125h-125ZM125,0h125v-125h-125ZM250,0h125v-125h-125ZM375,0h125v-125h-125ZM250,-125h125v-125h-125Z"></glyph>
    <glyph glyph-name="uni0025" unicode="%" horiz-adv-x="750" d="M0,625h125v-125h-125ZM125,625h125v-125h-125ZM500,625h125v-125h-125ZM0,500h125v-125h-125ZM125,500h125v-125h-125ZM375,500h125v-125h-125ZM250,375h125v-125h-125ZM250,250h125v-125h-125ZM250,125h125v-125h-125ZM125,0h125v-125h-125ZM375,0h125v-125h-125ZM500,0h125v-125h-125ZM0,-125h125v-125h-125ZM375,-125h125v-125h-125ZM500,-125h125v-125h-125Z"></glyph>
    <glyph glyph-name="uni0026" unicode="&amp;" horiz-adv-x="750" d="M125,625h125v-125h-125ZM250,625h125v-125h-125ZM0,500h125v-125h-125ZM375,500h125v-125h-125ZM0,375h125v-125h-125ZM375,375h125v-125h-125ZM125,250h125v-125h-125ZM250,250h125v-125h-125ZM0,125h125v-125h-125ZM250,125h125v-125h-125ZM500,125h125v-125h-125ZM0,0h125v-125h-125ZM375,0h125v-125h-125ZM125,-125h125v-125h-125ZM250,-125h125v-125h-125ZM500,-125h125v-125h-125Z"></glyph>
    <glyph glyph-name="uni0027" unicode="&#39;" horiz-adv-x="750" d="M250,625h125v-125h-125ZM250,500h125v-125h-125Z"></glyph>
    <glyph glyph-name="uni0028" unicode="(" horiz-adv-x="750" d="M375,625h125v-125h-125ZM250,500h125v-125h-125ZM125,375h125v-125h-125ZM125,250h125v-125h-125ZM125,125h125v-125h-125ZM250,0h125v-125h-125ZM375,-125h125v-125h-125Z"></glyph>
    <glyph glyph-name="uni0029" unicode=")" horiz-adv-x="750" d="M125,625h125v-125h-125ZM250,500h125v-125h-125ZM375,375h125v-125h-125ZM375,250h125v-125h-125ZM375,125h125v-125h-125ZM250,0h125v-125h-125ZM125,-125h125v-125h-125Z"></glyph>
    <glyph glyph-name="uni002A" unicode="*" horiz-adv-x="750" d="M250,500h125v-125h-125ZM0,375h125v-125h-125ZM250,375h125v-125h-125ZM500,375h125v-125h-125ZM125,250h125v-125h-125ZM250,250h125v-125h-125ZM375,250h125v-125h-125ZM0,125h125v-125h-125ZM250,125h125v-125h-125ZM500,125h125v-125h-125ZM250,0h125v-125h-125Z"></glyph>
    <glyph glyph-name="uni002B" unicode="+" horiz-adv-x="750" d="M250,375h125v-125h-125ZM125,250h125v-125h-125ZM250,250h125v-125h-125ZM375,250h125v-125h-125ZM250,125h125v-125h-125Z"></glyph>
    <glyph glyph-name="uni002C" unicode="," horiz-adv-x="750" d="M250,0h125v-125h-125ZM125,-125h125v-125h-125Z"></glyph>
    <glyph glyph-name="uni002D" unicode="-" horiz-adv-x="750" d="M125,250h125v-125h-125ZM250,250h125v-125h-125ZM375,250h125v-125h-125Z"></glyph>
    <glyph glyph-name="uni002E" unicode="." horiz-adv-x="750" d="M250,-125h125v-125h-125Z"></glyph>
    <glyph glyph-name="uni002F" unicode="/" horiz-adv-x="750" d="M500,500h125v-125h-125ZM375,375h125v-125h-125ZM250,250h125v-125h-125ZM125,125h125v-125h-125ZM0,0h125v-125h-125Z"></glyph>
    <glyph glyph-name="uni0030" unicode="0" horiz-adv-x="750" d="M125,625h125v-125h-125ZM250,625h125v-125h-125ZM375,625h125v-125h-125ZM0,500h125v-125h-125ZM500,500h125v-125h-125ZM0,375h125v-125h-125ZM375,375h125v-125h-125ZM500,375h125v-125h-125ZM0,250h125v-125h-125ZM250,250h125v-125h-125ZM500,250h125v-125h-125ZM0,125h125v-125h-125ZM125,125h125v-125h-125ZM500,125h125v-125h-125ZM0,0h125v-125h-125ZM500,0h125v-125h-125ZM125,-125h125v-125h-125ZM250,-125h125v-125h-125ZM375,-125h125v-125h-125Z"></glyph>
    <glyph glyph-name="uni0031" unicode="1" horiz-adv-x="750" d="M250,625h125v-125h-125ZM125,500h125v-125h-125ZM250,500h125v-125h-125ZM250,375h125v-125h-125ZM250,250h125v-125h-125ZM250,125h125v-125h-125ZM250,0h125v-125h-125ZM125,-125h125v-125h-125ZM250,-125h125v-125h-125ZM375,-125h125v-125h-125Z"></glyph>
    <glyph glyph-name="uni0032" unicode="2" horiz-adv-x="750" d="M125,625h125v-125h-125ZM250,625h125v-125h-125ZM375,625h125v-125h-125ZM0,500h125v-125h-125ZM500,500h125v-125h-125ZM500,375h125v-125h-125ZM375,250h125v-125h-125ZM250,125h125v-125h-125ZM125,0h125v-125h-125ZM0,-125h125v-125h-125ZM125,-125h125v-125h-125ZM250,-125h125v-125h-125ZM375,-125h125v-125h-125ZM500,-125h125v-125h-125Z"></glyph>
    <glyph glyph-name="uni0033" unicode="3" horiz-adv-x="750" d="M125,625h125v-125h-125ZM250,625h125v-125h-125ZM375,625h125v-125h-125ZM0,500h125v-125h-125ZM500,500h125v-125h-125ZM500,375h125v-125h-125ZM250,250h125v-125h-125ZM375,250h125v-125h-125ZM500,125h125v-125h-125ZM0,0h125v-125h-125ZM500,0h125v-125h-125ZM125,-125h125v-125h-125ZM250,-125h125v-125h-125ZM375,-125h125v-125h-125Z"></glyph>
    <glyph glyph-name="uni0034" unicode="4" horiz-adv-x="750" d="M375,625h125v-125h-125ZM250,500h125v-125h-125ZM375,500h125v-125h-125ZM125,375h125v-125h-125ZM375,375h125v-125h-125ZM0,250h125v-125h-125ZM375,250h125v-125h-125ZM0,125h125v-125h-125ZM125,125h125v-125h-125ZM250,125h125v-125h-125ZM375,125h125v-125h-125ZM500,125h125v-125h-125ZM375,0h125v-125h-125ZM375,-125h125v-125h-125Z"></glyph>
    <glyph glyph-name="uni0035" unicode="5" horiz-adv-x="750" d="M0,625h125v-125h-125ZM125,625h125v-125h-125ZM250,625h125v-125h-125ZM375,625h125v-125h-125ZM500,625h125v-125h-125ZM0,500h125v-125h-125ZM0,375h125v-125h-125ZM125,375h125v-125h-125ZM250,375h125v-125h-125ZM375,375h125v-125h-125ZM500,250h125v-125h-125ZM500,125h125v-125h-125ZM0,0h125v-125h-125ZM500,0h125v-125h-125ZM125,-125h125v-125h-125ZM250,-125h125v-125h-125ZM375,-125h125v-125h-125Z"></glyph>
    <glyph glyph-name="uni0036" unicode="6" horiz-adv-x="750" d="M250,625h125v-125h-125ZM375,625h125v-125h-125ZM125,500h125v-125h-125ZM0,375h125v-125h-125ZM0,250h125v-125h-125ZM125,250h125v-125h-125ZM250,250h125v-125h-125ZM375,250h125v-125h-125ZM0,125h125v-125h-125ZM500,125h125v-125h-125ZM0,0h125v-125h-125ZM500,0h125v-125h-125ZM125,-125h125v-125h-125ZM250,-125h125v-125h-125ZM375,-125h125v-125h-125Z"></glyph>
    <glyph glyph-name="uni0037" unicode="7" horiz-adv-x="750" d="M0,625h125v-125h-125ZM125,625h125v-125h-125ZM250,625h125v-125h-125ZM375,625h125v-125h-125ZM500,625h125v-125h-125ZM500,500h125v-125h-125ZM375,375h125v-125h-125ZM250,250h125v-125h-125ZM125,125h125v-125h-125ZM125,0h125v-125h-125ZM125,-125h125v-125h-125Z"></glyph>
    <glyph glyph-name="uni0038" unicode="8" horiz-adv-x="750" d="M125,625h125v-125h-125ZM250,625h125v-125h-125ZM375,625h125v-125h-125ZM0,500h125v-125h-125ZM500,500h125v-125h-125ZM0,375h125v-125h-125ZM500,375h125v-125h-125ZM125,250h125v-125h-125ZM250,250h125v-125h-125ZM375,250h125v-125h-125ZM0,125h125v-125h-125ZM500,125h125v-125h-125ZM0,0h125v-125h-125ZM500,0h125v-125h-125ZM125,-125h125v-125h-125ZM250,-125h125v-125h-125ZM375,-125h125v-125h-125Z"></glyph>
    <glyph glyph-name="uni0039" unicode="9" horiz-adv-x="750" d="M125,625h125v-125h-125ZM250,625h125v-125h-125ZM375,625h125v-125h-125ZM0,500h125v-125h-125ZM500,500h125v-125h-125ZM0,375h125v-125h-125ZM500,375h125v-125h-125ZM125,250h125v-125h-125ZM250,250h125v-125h-125ZM375,250h125v-125h-125ZM500,250h125v-125h-125ZM500,125h125v-125h-125ZM500,0h125v-125h-125ZM125,-125h125v-125h-125ZM250,-125h125v-125h-125ZM375,-125h125v-125h-125Z"></glyph>
    <glyph glyph-name="uni003A" unicode=":" horiz-adv-x="750" d="M250,375h125v-125h-125ZM250,0h125v-125h-125Z"></glyph>
    <glyph glyph-name="uni003B" unicode=";" horiz-adv-x="750" d="M250,375h125v-125h-125ZM250,0h125v-125h-125ZM125,-125h125v-125h-125Z"></glyph>
    <glyph glyph-name="uni003C" unicode="&lt;" horiz-adv-x="750" d="M375,500h125v-125h-125ZM250,375h125v-125h-125ZM125,250h125v-125h-125ZM250,125h125v-125h-125ZM375,0h125v-125h-125Z"></glyph>
    <glyph glyph-name="uni003D" unicode="=" horiz-adv-x="750" d="M125,375h125v-125h-125ZM250,375h125v-125h-125ZM375,375h125v-125h-125ZM125,125h125v-125h-125ZM250,125h125v-125h-125ZM375,125h125v-125h-125Z"></glyph>
    <glyph glyph-name="uni003E" unicode="&gt;" horiz-adv-x="750" d="M125,500h125v-125h-125ZM250,375h125v-125h-125ZM375,250h125v-125h-125ZM250,125h125v-125h-125ZM125,0h125v-125h-125Z"></glyph>
    <glyph glyph-name="uni003F" unicode="?" horiz-adv-x="750" d="M125,625h125v-125h-125ZM250,625h125v-125h-125ZM375,625h125v-125h-125ZM0,500h125v-125h-125ZM500,500h125v-125h-125ZM500,375h125v-125h-125ZM375,250h125v-125h-125ZM250,125h125v-125h-125ZM250,-125h125v-125h-125Z"></glyph>
    <glyph glyph-name="uni0040" unicode="@" horiz-adv-x="750" d="M125,625h125v-125h-125ZM250,625h125v-125h-125ZM375,625h125v-125h-125ZM0,500h125v-125h-125ZM500,500h125v-125h-125ZM0,375h125v-125h-125ZM250,375h125v-125h-125ZM375,375h125v-125h-125ZM500,375h125v-125h-125ZM0,250h125v-125h-125ZM250,250h125v-125h-125ZM500,250h125v-125h-125ZM0,125h125v-125h-125ZM250,125h125v-125h-125ZM375,125h125v-125h-125ZM500,125h125v-125h-125ZM0,0h125v-125h-125ZM125,-125h125v-125h-125ZM250,-125h125v-125h-125ZM375,-125h125v-125h-125Z"></glyph>
    <glyph glyph-name="uni0041" unicode="A" horiz-adv-x="750" d="M125,625h125v-125h-125ZM250,625h125v-125h-125ZM375,625h125v-125h-125ZM0,500h125v-125h-125ZM500,500h125v-125h-125ZM0,375h125v-125h-125ZM500,375h125v-125h-125ZM0,250h125v-125h-125ZM125,250h125v-125h-125ZM250,250h125v-125h-125ZM375,250h125v-125h-125ZM500,250h125v-125h-125ZM0,125h125v-125h-125ZM500,125h125v-125h-125ZM0,0h125v-125h-125ZM500,0h125v-125h-125ZM0,-125h125v-125h-125ZM500,-125h125v-125h-125Z"></glyph>
    <glyph glyph-name="uni0042" unicode="B" horiz-adv-x="750" d="M0,625h125v-125h-125ZM125,625h125v-125h-125ZM250,625h125v-125h-125ZM375,625h125v-125h-125ZM0,500h125v-125h-125ZM500,500h125v-125h-125ZM0,375h125v-125h-125ZM500,375h125v-125h-125ZM0,250h125v-125h-125ZM125,250h125v-125h-125ZM250,250h125v-125h-125ZM375,250h125v-125h-125ZM0,125h125v-125h-125ZM500,125h125v-125h-125ZM0,0h125v-125h-125ZM500,0h125v-125h-125ZM0,-125h125v-125h-125ZM125,-125h125v-125h-125ZM250,-125h125v-125h-125ZM375,-125h125v-125h-125Z"></glyph>
    <glyph glyph-name="uni0043" unicode="C" horiz-adv-x="750" d="M125,625h125v-125h-125ZM250,625h125v-125h-125ZM375,625h125v-125h-125ZM500,625h125v-125h-125ZM0,500h125v-125h-125ZM0,375h125v-125h-125ZM0,250h125v-125h-125ZM0,125h125v-125h-125ZM0,0h125v-125h-125ZM125,-125h125v-125h-125ZM250,-125h125v-125h-125ZM375,-125h125v-125h-125ZM500,-125h125v-125h-125Z"></glyph>
    <glyph glyph-name="uni0044" unicode="D" horiz-adv-x="750" d="M0,625h125v-125h-125ZM125,625h125v-125h-125ZM250,625h125v-125h-125ZM375,625h125v-125h-125ZM0,500h125v-125h-125ZM500,500h125v-125h-125ZM0,375h125v-125h-125ZM500,375h125v-125h-125ZM0,250h125v-125h-125ZM500,250h125v-125h-125ZM0,125h125v-125h-125ZM500,125h125v-125h-125ZM0,0h125v-125h-125ZM500,0h125v-125h-125ZM0,-125h125v-125h-125ZM125,-125h125v-125h-125ZM250,-125h125v-125h-125ZM375,-125h125v-125h-125Z"></glyph>
    <glyph glyph-name="uni0045" unicode="E" horiz-adv-x="750" d="M0,625h125v-125h-125ZM125,625h125v-125h-125ZM250,625h125v-125h-125ZM375,625h125v-125h-125ZM500,625h125v-125h-125ZM0,500h125v-125h-125ZM0,375h125v-125h-125ZM0,250h125v-125h-125ZM125,250h125v-125h-125ZM250,250h125v-125h-125ZM375,250h125v-125h-125ZM0,125h125v-125h-125ZM0,0h125v-125h-125ZM0,-125h125v-125h-125ZM125,-125h125v-125h-125ZM250,-125h125v-125h-125ZM375,-125h125v-125h-125ZM500,-125h125v-125h-125Z"></glyph>
    <glyph glyph-name="uni0046" unicode="F" horiz-adv-x="750" d="M0,625h125v-125h-125ZM125,625h125v-125h-125ZM250,625h125v-125h-125ZM375,625h125v-125h-125ZM500,625h125v-125h-125ZM0,500h125v-125h-125ZM0,375h125v-125h-125ZM0,250h125v-125h-125ZM125,250h125v-125h-125ZM250,250h125v-125h-125ZM375,250h125v-125h-125ZM0,125h125v-125h-125ZM0,0h125v-125h-125ZM0,-125h125v-125h-125Z"></glyph>
    <glyph glyph-name="uni0047" unicode="G" horiz-adv-x="750" d="M125,625h125v-125h-125ZM250,625h125v-125h-125ZM375,625h125v-125h-125ZM500,625h125v-125h-125ZM0,500h125v-125h-125ZM0,375h125v-125h-125ZM0,250h125v-125h-125ZM375,250h125v-125h-125ZM500,250h125v-125h-125ZM0,125h125v-125h-125ZM500,125h125v-125h-125ZM0,0h125v-125h-125ZM500,0h125v-125h-125ZM125,-125h125v-125h-125ZM250,-125h125v-125h-125ZM375,-125h125v-125h-125Z"></glyph>
    <glyph glyph-name="uni0048" unicode="H" horiz-adv-x="750" d="M0,625h125v-125h-125ZM500,625h125v-125h-125ZM0,500h125v-125h-125ZM500,500h125v-125h-125ZM0,375h125v-125h-125ZM500,375h125v-125h-125ZM0,250h125v-125h-125ZM125,250h125v-125h-125ZM250,250h125v-125h-125ZM375,250h125v-125h-125ZM500,250h125v-125h-125ZM0,125h125v-125h-125ZM500,125h125v-125h-125ZM0,0h125v-125h-125ZM500,0h125v-125h-125ZM0,-125h125v-125h-125ZM500,-125h125v-125h-125Z"></glyph>
    <glyph glyph-name="uni0049" unicode="I" horiz-adv-x="750" d="M0,625h125v-125h-125ZM125,625h125v-125h-125ZM250,625h125v-125h-125ZM375,625h125v-125h-125ZM500,625h125v-125h-125ZM250,500h125v-125h-125ZM250,375h125v-125h-125ZM250,250h125v-125h-125ZM250,125h125v-125h-125ZM250,0h125v-125h-125ZM0,-125h125v-125h-125ZM125,-125h125v-125h-125ZM250,-125h125v-125h-125ZM375,-125h125v-125h-125ZM500,-125h125v-125h-125Z"></glyph>
    <glyph glyph-name="uni004A" unicode="J" horiz-adv-x="750" d="M250,625h125v-125h-125ZM375,625h125v-125h-125ZM500,625h125v-125h-125ZM375,500h125v-125h-125ZM375,375h125v-125h-125ZM375,250h125v-125h-125ZM375,125h125v-125h-125ZM0,0h125v-125h-125ZM375,0h125v-125h-125ZM125,-125h125v-125h-125ZM250,-125h125v-125h-125Z"></glyph>
    <glyph glyph-name="uni004B" unicode="K" horiz-adv-x="750" d="M0,625h125v-125h-125ZM500,625h125v-125h-125ZM0,500h125v-125h-125ZM375,500h125v-125h-125ZM0,375h125v-125h-125ZM250,375h125v-125h-125ZM0,250h125v-125h-125ZM125,250h125v-125h-125ZM0,125h125v-125h-125ZM250,125h125v-125h-125ZM0,0h125v-125h-125ZM375,0h125v-125h-125ZM0,-125h125v-125h-125ZM500,-125h125v-125h-125Z"></glyph>
    <glyph glyph-name="uni004C" unicode="L" horiz-adv-x="750" d="M0,625h125v-125h-125ZM0,500h125v-125h-125ZM0,375h125v-125h-125ZM0,250h125v-125h-125ZM0,125h125v-125h-125ZM0,0h125v-125h-125ZM0,-125h125v-125h-125ZM125,-125h125v-125h-125ZM250,-125h125v-125h-125ZM375,-125h125v-125h-125ZM500,-125h125v-125h-125Z"></glyph>
    <glyph glyph-name="uni004D" unicode="M" horiz-adv-x="750" d="M0,625h125v-125h-125ZM500,625h125v-125h-125ZM0,500h125v-125h-125ZM125,500h125v-125h-125ZM375,500h125v-125h-125ZM500,500h125v-125h-125ZM0,375h125v-125h-125ZM250,375h125v-125h-125ZM500,375h125v-125h-125ZM0,250h125v-125h-125ZM250,250h125v-125h-125ZM500,250h125v-125h-125ZM0,125h125v-125h-125ZM500,125h125v-125h-125ZM0,0h125v-125h-125ZM500,0h125v-125h-125ZM0,-125h125v-125h-125ZM500,-125h125v-125h-125Z"></glyph>
    <glyph glyph-name="uni004E" unicode="N" horiz-adv-x="750" d="M0,625h125v-125h-125ZM500,625h125v-125h-125ZM0,500h125v-125h-125ZM500,500h125v-125h-125ZM0,375h125v-125h-125ZM125,375h125v-125h-125ZM500,375h125v-125h-125ZM0,250h125v-125h-125ZM250,250h125v-125h-125ZM500,250h125v-125h-125ZM0,125h125v-125h-125ZM375,125h125v-125h-125ZM500,125h125v-125h-125ZM0,0h125v-125h-125ZM500,0h125v-125h-125ZM0,-125h125v-125h-125ZM500,-125h125v-125h-125Z"></glyph>
    <glyph glyph-name="uni004F" unicode="O" horiz-adv-x="750" d="M125,625h125v-125h-125ZM250,625h125v-125h-125ZM375,625h125v-125h-125ZM0,500h125v-125h-125ZM500,500h125v-125h-125ZM0,375h125v-125h-125ZM500,375h125v-125h-125ZM0,250h125v-125h-125ZM500,250h125v-125h-125ZM0,125h125v-125h-125ZM500,125h125v-125h-125ZM0,0h125v-125h-125ZM500,0h125v-125h-125ZM125,-125h125v-125h-125ZM250,-125h125v-125h-125ZM375,-125h125v-125h-125Z"></glyph>
    <glyph glyph-name="uni0050" unicode="P" horiz-adv-x="750" d="M0,625h125v-125h-125ZM125,625h125v-125h-125ZM250,625h125v-125h-125ZM375,625h125v-125h-125ZM0,500h125v-125h-125ZM500,500h125v-125h-125ZM0,375h125v-125h-125ZM500,375h125v-125h-125ZM0,250h125v-125h-125ZM125,250h125v-125h-125ZM250,250h125v-125h-125ZM375,250h125v-125h-125ZM0,125h125v-125h-125ZM0,0h125v-125h-125ZM0,-125h125v-125h-125Z"></glyph>
    <glyph glyph-name="uni0051" unicode="Q" horiz-adv-x="750" d="M125,625h125v-125h-125ZM250,625h125v-125h-125ZM375,625h125v-125h-125ZM0,500h125v-125h-125ZM500,500h125v-125h-125ZM0,375h125v-125h-125ZM500,375h125v-125h-125ZM0,250h125v-125h-125ZM500,250h125v-125h-125ZM0,125h125v-125h-125ZM250,125h125v-125h-125ZM500,125h125v-125h-125ZM0,0h125v-125h-125ZM375,0h125v-125h-125ZM125,-125h125v-125h-125ZM250,-125h125v-125h-125ZM500,-125h125v-125h-125Z"></glyph>
    <glyph glyph-name="uni0052" unicode="R" horiz-adv-x="750" d="M0,625h125v-125h-125ZM125,625h125v-125h-125ZM250,625h125v-125h-125ZM375,625h125v-125h-125ZM0,500h125v-125h-125ZM500,500h125v-125h-125ZM0,375h125v-125h-125ZM500,375h125v-125h-125ZM0,250h125v-125h-125ZM125,250h125v-125h-125ZM250,250h125v-125h-125ZM375,250h125v-125h-125ZM0,125h125v-125h-125ZM250,125h125v-125h-125ZM0,0h125v-125h-125ZM375,0h125v-125h-125ZM0,-125h125v-125h-125ZM500,-125h125v-125h-125Z"></glyph>
    <glyph glyph-name="uni0053" unicode="S" horiz-adv-x="750" d="M125,625h125v-125h-125ZM250,625h125v-125h-125ZM375,625h125v-125h-125ZM500,625h125v-125h-125ZM0,500h125v-125h-125ZM0,375h125v-125h-125ZM125,250h125v-125h-125ZM250,250h125v-125h-125ZM375,250h125v-125h-125ZM500,125h125v-125h-125ZM500,0h125v-125h-125ZM0,-125h125v-125h-125ZM125,-125h125v-125h-125ZM250,-125h125v-125h-125ZM375,-125h125v-125h-125Z"></glyph>
    <glyph glyph-name="uni0054" unicode="T" horiz-adv-x="750" d="M0,625h125v-125h-125ZM125,625h125v-125h-125ZM250,625h125v-125h-125ZM375,625h125v-125h-125ZM500,625h125v-125h-125ZM250,500h125v-125h-125ZM250,375h125v-125h-125ZM250,250h125v-125h-125ZM250,125h125v-125h-125ZM250,0h125v-125h-125ZM250,-125h125v-125h-125Z"></glyph>
    <glyph glyph-name="uni0055" unicode="U" horiz-adv-x="750" d="M0,625h125v-125h-125ZM500,625h125v-125h-125ZM0,500h125v-125h-125ZM500,500h125v-125h-125ZM0,375h125v-125h-125ZM500,375h125v-125h-125ZM0,250h125v-125h-125ZM500,250h125v-125h-125ZM0,125h125v-125h-125ZM500,125h125v-125h-125ZM0,0h125v-125h-125ZM500,0h125v-125h-125ZM125,-125h125v-125h-125ZM250,-125h125v-125h-125ZM375,-125h125v-125h-125Z"></glyph>
    <glyph glyph-name="uni0056" unicode="V" horiz-adv-x="750" d="M0,625h125v-125h-125ZM500,625h125v-125h-125ZM0,500h125v-125h-125ZM500,500h125v-125h-125ZM0,375h125v-125h-125ZM500,375h125v-125h-125ZM0,250h125v-125h-125ZM500,250h125v-125h-125ZM0,125h125v-125h-125ZM500,125h125v-125h-125ZM125,0h125v-125h-125ZM375,0h125v-125h-125ZM250,-125h125v-125h-125Z"></glyph>
    <glyph glyph-name="uni0057" unicode="W" horiz-adv-x="750" d="M0,625h125v-125h-125ZM500,625h125v-125h-125ZM0,500h125v-125h-125ZM500,500h125v-125h-125ZM0,375h125v-125h-125ZM500,375h125v-125h-125ZM0,250h125v-125h-125ZM250,250h125v-125h-125ZM500,250h125v-125h-125ZM0,125h125v-125h-125ZM250,125h125v-125h-125ZM500,125h125v-125h-125ZM0,0h125v-125h-125ZM250,0h125v-125h-125ZM500,0h125v-125h-125ZM125,-125h125v-125h-125ZM375,-125h125v-125h-125Z"></glyph>
    <glyph glyph-name="uni0058" unicode="X" horiz-adv-x="750" d="M0,625h125v-125h-125ZM500,625h125v-125h-125ZM0,500h125v-125h-125ZM500,500h125v-125h-125ZM125,375h125v-125h-125ZM250,375h125v-125h-125ZM375,375h125v-125h-125ZM250,250h125v-125h-125ZM125,125h125v-125h-125ZM250,125h125v-125h-125ZM375,125h125v-125h-125ZM0,0h125v-125h-125ZM500,0h125v-125h-125ZM0,-125h125v-125h-125ZM500,-125h125v-125h-125Z"></glyph>
    <glyph glyph-name="uni0059" unicode="Y" horiz-adv-x="750" d="M0,625h125v-125h-125ZM500,625h125v-125h-125ZM0,500h125v-125h-125ZM500,500h125v-125h-125ZM125,375h125v-125h-125ZM375,375h125v-125h-125ZM250,250h125v-125h-125ZM250,125h125v-125h-125ZM250,0h125v-125h-125ZM250,-125h125v-125h-125Z"></glyph>
    <glyph glyph-name="uni005A" unicode="Z" horiz-adv-x="750" d="M0,625h125v-125h-125ZM125,625h125v-125h-125ZM250,625h125v-125h-125ZM375,625h125v-125h-125ZM500,625h125v-125h-125ZM500,500h125v-125h-125ZM375,375h125v-125h-125ZM250,250h125v-125h-125ZM125,125h125v-125h-125ZM0,0h125v-125h-125ZM0,-125h125v-125h-125ZM125,-125h125v-125h-125ZM250,-125h125v-125h-125ZM375,-125h125v-125h-125ZM500,-125h125v-125h-125Z"></glyph>
    <glyph glyph-name="uni005B" unicode="[" horiz-adv-x="750" d="M125,625h125v-125h-125ZM250,625h125v-125h-125ZM375,625h125v-125h-125ZM125,500h125v-125h-125ZM125,375h125v-125h-125ZM125,250h125v-125h-125ZM125,125h125v-125h-125ZM125,0h125v-125h-125ZM125,-125h125v-125h-125ZM250,-125h125v-125h-125ZM375,-125h125v-125h-125Z"></glyph>
    <glyph glyph-name="uni005C" unicode="\" horiz-adv-x="750" d="M0,500h125v-125h-125ZM125,375h125v-125h-125ZM250,250h125v-125h-125ZM375,125h125v-125h-125ZM500,0h125v-125h-125Z"></glyph>
    <glyph glyph-name="uni005D" unicode="]" horiz-adv-x="750" d="M125,625h125v-125h-125ZM250,625h125v-125h-125ZM375,625h125v-125h-125ZM375,500h125v-125h-125ZM375,375h125v-125h-125ZM375,250h125v-125h-125ZM375,125h125v-125h-125ZM375,0h125v-125h-125ZM125,-125h125v-125h-125ZM250,-125h125v-125h-125ZM375,-125h125v-125h-125Z"></glyph>
    <glyph glyph-name="uni005E" unicode="^" horiz-adv-x="750" d="M250,625h125v-125h-125ZM125,500h125v-125h-125ZM375,500h125v-125h-125ZM0,375h125v-125h-125ZM500,375h125v-125h-125Z"></glyph>
    <glyph glyph-name="uni005F" unicode="_" horiz-adv-x="750" d="M0,-125h125v-125h-125ZM125,-125h125v-125h-125ZM250,-125h125v-125h-125ZM375,-125h125v-125h-125ZM500,-125h125v-125h-125Z"></glyph>
    <glyph glyph-name="uni0060" unicode="`" horiz-adv-x="750" d="M125,625h125v-125h-125ZM250,500h125v-125h-125Z"></glyph>
    <glyph glyph-name="uni0061" unicode="a" horiz-adv-x="750" d="M125,375h125v-125h-125ZM250,375h125v-125h-125ZM375,375h125v-125h-125ZM500,250h125v-125h-125ZM125,125h125v-125h-125ZM250,125h125v-125h-125ZM375,125h125v-125h-125ZM500,125h125v-125h-125ZM0,0h125v-125h-125ZM500,0h125v-125h-125ZM125,-125h125v-125h-125ZM250,-125h125v-125h-125ZM375,-125h125v-125h-125ZM500,-125h125v-125h-125Z"></glyph>
    <glyph glyph-name="uni0062" unicode="b" horiz-adv-x="750" d="M0,625h125v-125h-125ZM0,500h125v-125h-125ZM0,375h125v-125h-125ZM125,375h125v-125h-125ZM250,375h125v-125h-125ZM375,375h125v-125h-125ZM0,250h125v-125h-125ZM500,250h125v-125h-125ZM0,125h125v-125h-125ZM500,125h125v-125h-125ZM0,0h125v-125h-125ZM500,0h125v-125h-125ZM0,-125h125v-125h-125ZM125,-125h125v-125h-125ZM250,-125h125v-125h-125ZM375,-125h125v-125h-125Z"></glyph>
    <glyph glyph-name="uni0063" unicode="c" horiz-adv-x="750" d="M125,375h125v-125h-125ZM250,375h125v-125h-125ZM375,375h125v-125h-125ZM500,375h125v-125h-125ZM0,250h125v-125h-125ZM125,250h125v-125h-125ZM0,125h125v-125h-125ZM125,125h125v-125h-125ZM0,0h125v-125h-125ZM125,0h125v-125h-125ZM125,-125h125v-125h-125ZM250,-125h125v-125h-125ZM375,-125h125v-125h-125ZM500,-125h125v-125h-125Z"></glyph>
    <glyph glyph-name="uni0064" unicode="d" horiz-adv-x="750" d="M500,625h125v-125h-125ZM500,500h125v-125h-125ZM125,375h125v-125h-125ZM250,375h125v-125h-125ZM375,375h125v-125h-125ZM500,375h125v-125h-125ZM0,250h125v-125h-125ZM500,250h125v-125h-125ZM0,125h125v-125h-125ZM500,125h125v-125h-125ZM0,0h125v-125h-125ZM500,0h125v-125h-125ZM125,-125h125v-125h-125ZM250,-125h125v-125h-125ZM375,-125h125v-125h-125ZM500,-125h125v-125h-125Z"></glyph>
    <glyph glyph-name="uni0065" unicode="e" horiz-adv-x="750" d="M125,375h125v-125h-125ZM250,375h125v-125h-125ZM375,375h125v-125h-125ZM0,250h125v-125h-125ZM500,250h125v-125h-125ZM0,125h125v-125h-125ZM125,125h125v-125h-125ZM250,125h125v-125h-125ZM375,125h125v-125h-125ZM500,125h125v-125h-125ZM0,0h125v-125h-125ZM125,-125h125v-125h-125ZM250,-125h125v-125h-125ZM375,-125h125v-125h-125Z"></glyph>
    <glyph glyph-name="uni0066" unicode="f" horiz-adv-x="750" d="M250,625h125v-125h-125ZM375,625h125v-125h-125ZM125,500h125v-125h-125ZM125,375h125v-125h-125ZM0,250h125v-125h-125ZM125,250h125v-125h-125ZM250,250h125v-125h-125ZM375,250h125v-125h-125ZM125,125h125v-125h-125ZM125,0h125v-125h-125ZM125,-125h125v-125h-125Z"></glyph>
    <glyph glyph-name="uni0067" unicode="g" horiz-adv-x="750" d="M125,375h125v-125h-125ZM250,375h125v-125h-125ZM375,375h125v-125h-125ZM500,375h125v-125h-125ZM0,250h125v-125h-125ZM500,250h125v-125h-125ZM125,125h125v-125h-125ZM250,125h125v-125h-125ZM375,125h125v-125h-125ZM500,125h125v-125h-125ZM500,0h125v-125h-125ZM125,-125h125v-125h-125ZM250,-125h125v-125h-125ZM375,-125h125v-125h-125Z"></glyph>
    <glyph glyph-name="uni0068" unicode="h" horiz-adv-x="750" d="M0,625h125v-125h-125ZM0,500h125v-125h-125ZM0,375h125v-125h-125ZM125,375h125v-125h-125ZM250,375h125v-125h-125ZM375,375h125v-125h-125ZM0,250h125v-125h-125ZM500,250h125v-125h-125ZM0,125h125v-125h-125ZM500,125h125v-125h-125ZM0,0h125v-125h-125ZM500,0h125v-125h-125ZM0,-125h125v-125h-125ZM500,-125h125v-125h-125Z"></glyph>
    <glyph glyph-name="uni0069" unicode="i" horiz-adv-x="750" d="M250,625h125v-125h-125ZM125,375h125v-125h-125ZM250,375h125v-125h-125ZM250,250h125v-125h-125ZM250,125h125v-125h-125ZM250,0h125v-125h-125ZM125,-125h125v-125h-125ZM250,-125h125v-125h-125ZM375,-125h125v-125h-125Z"></glyph>
    <glyph glyph-name="uni006A" unicode="j" horiz-adv-x="750" d="M375,625h125v-125h-125ZM250,375h125v-125h-125ZM375,375h125v-125h-125ZM375,250h125v-125h-125ZM375,125h125v-125h-125ZM375,0h125v-125h-125ZM125,-125h125v-125h-125ZM250,-125h125v-125h-125Z"></glyph>
    <glyph glyph-name="uni006B" unicode="k" horiz-adv-x="750" d="M0,625h125v-125h-125ZM0,500h125v-125h-125ZM0,375h125v-125h-125ZM375,375h125v-125h-125ZM0,250h125v-125h-125ZM250,250h125v-125h-125ZM0,125h125v-125h-125ZM125,125h125v-125h-125ZM0,0h125v-125h-125ZM250,0h125v-125h-125ZM0,-125h125v-125h-125ZM375,-125h125v-125h-125Z"></glyph>
    <glyph glyph-name="uni006C" unicode="l" horiz-adv-x="750" d="M125,625h125v-125h-125ZM250,625h125v-125h-125ZM250,500h125v-125h-125ZM250,375h125v-125h-125ZM250,250h125v-125h-125ZM250,125h125v-125h-125ZM250,0h125v-125h-125ZM125,-125h125v-125h-125ZM250,-125h125v-125h-125ZM375,-125h125v-125h-125Z"></glyph>
    <glyph glyph-name="uni006D" unicode="m" horiz-adv-x="750" d="M125,375h125v-125h-125ZM375,375h125v-125h-125ZM0,250h125v-125h-125ZM250,250h125v-125h-125ZM500,250h125v-125h-125ZM0,125h125v-125h-125ZM250,125h125v-125h-125ZM500,125h125v-125h-125ZM0,0h125v-125h-125ZM250,0h125v-125h-125ZM500,0h125v-125h-125ZM0,-125h125v-125h-125ZM500,-125h125v-125h-125Z"></glyph>
    <glyph glyph-name="uni006E" unicode="n" horiz-adv-x="750" d="M125,375h125v-125h-125ZM250,375h125v-125h-125ZM375,375h125v-125h-125ZM0,250h125v-125h-125ZM500,250h125v-125h-125ZM0,125h125v-125h-125ZM500,125h125v-125h-125ZM0,0h125v-125h-125ZM500,0h125v-125h-125ZM0,-125h125v-125h-125ZM500,-125h125v-125h-125Z"></glyph>
    <glyph glyph-name="uni006F" unicode="o" horiz-adv-x="750" d="M125,375h125v-125h-125ZM250,375h125v-125h-125ZM375,375h125v-125h-125ZM0,250h125v-125h-125ZM500,250h125v-125h-125ZM0,125h125v-125h-125ZM500,125h125v-125h-125ZM0,0h125v-125h-125ZM500,0h125v-125h-125ZM125,-125h125v-125h-125ZM250,-125h125v-125h-125ZM375,-125h125v-125h-125Z"></glyph>
    <glyph glyph-name="uni0070" unicode="p" horiz-adv-x="750" d="M0,375h125v-125h-125ZM125,375h125v-125h-125ZM250,375h125v-125h-125ZM375,375h125v-125h-125ZM0,250h125v-125h-125ZM500,250h125v-125h-125ZM0,125h125v-125h-125ZM125,125h125v-125h-125ZM250,125h125v-125h-125ZM375,125h125v-125h-125ZM0,0h125v-125h-125ZM0,-125h125v-125h-125Z"></glyph>
    <glyph glyph-name="uni0071" unicode="q" horiz-adv-x="750" d="M125,375h125v-125h-125ZM250,375h125v-125h-125ZM375,375h125v-125h-125ZM500,375h125v-125h-125ZM0,250h125v-125h-125ZM500,250h125v-125h-125ZM125,125h125v-125h-125ZM250,125h125v-125h-125ZM375,125h125v-125h-125ZM500,125h125v-125h-125ZM500,0h125v-125h-125ZM500,-125h125v-125h-125Z"></glyph>
    <glyph glyph-name="uni0072" unicode="r" horiz-adv-x="750" d="M0,375h125v-125h-125ZM250,375h125v-125h-125ZM375,375h125v-125h-125ZM500,375h125v-125h-125ZM0,250h125v-125h-125ZM125,250h125v-125h-125ZM0,125h125v-125h-125ZM0,0h125v-125h-125ZM0,-125h125v-125h-125Z"></glyph>
    <glyph glyph-name="uni0073" unicode="s" horiz-adv-x="750" d="M125,375h125v-125h-125ZM250,375h125v-125h-125ZM375,375h125v-125h-125ZM500,375h125v-125h-125ZM0,250h125v-125h-125ZM125,125h125v-125h-125ZM250,125h125v-125h-125ZM375,125h125v-125h-125ZM500,0h125v-125h-125ZM0,-125h125v-125h-125ZM125,-125h125v-125h-125ZM250,-125h125v-125h-125ZM375,-125h125v-125h-125Z"></glyph>
    <glyph glyph-name="uni0074" unicode="t" horiz-adv-x="750" d="M250,625h125v-125h-125ZM250,500h125v-125h-125ZM125,375h125v-125h-125ZM250,375h125v-125h-125ZM375,375h125v-125h-125ZM250,250h125v-125h-125ZM250,125h125v-125h-125ZM250,0h125v-125h-125ZM375,-125h125v-125h-125ZM500,-125h125v-125h-125Z"></glyph>
    <glyph glyph-name="uni0075" unicode="u" horiz-adv-x="750" d="M0,375h125v-125h-125ZM500,375h125v-125h-125ZM0,250h125v-125h-125ZM500,250h125v-125h-125ZM0,125h125v-125h-125ZM500,125h125v-125h-125ZM0,0h125v-125h-125ZM500,0h125v-125h-125ZM125,-125h125v-125h-125ZM250,-125h125v-125h-125ZM375,-125h125v-125h-125Z"></glyph>
    <glyph glyph-name="uni0076" unicode="v" horiz-adv-x="750" d="M0,375h125v-125h-125ZM500,375h125v-125h-125ZM0,250h125v-125h-125ZM500,250h125v-125h-125ZM0,125h125v-125h-125ZM500,125h125v-125h-125ZM125,0h125v-125h-125ZM375,0h125v-125h-125ZM250,-125h125v-125h-125Z"></glyph>
    <glyph glyph-name="uni0077" unicode="w" horiz-adv-x="750" d="M0,375h125v-125h-125ZM500,375h125v-125h-125ZM0,250h125v-125h-125ZM500,250h125v-125h-125ZM0,125h125v-125h-125ZM250,125h125v-125h-125ZM500,125h125v-125h-125ZM0,0h125v-125h-125ZM250,0h125v-125h-125ZM500,0h125v-125h-125ZM125,-125h125v-125h-125ZM375,-125h125v-125h-125Z"></glyph>
    <glyph glyph-name="uni0078" unicode="x" horiz-adv-x="750" d="M0,375h125v-125h-125ZM500,375h125v-125h-125ZM125,250h125v-125h-125ZM375,250h125v-125h-125ZM250,125h125v-125h-125ZM125,0h125v-125h-125ZM375,0h125v-125h-125ZM0,-125h125v-125h-125ZM500,-125h125v-125h-125Z"></glyph>
    <glyph glyph-name="uni0079" unicode="y" horiz-adv-x="750" d="M0,375h125v-125h-125ZM500,375h125v-125h-125ZM0,250h125v-125h-125ZM500,250h125v-125h-125ZM125,125h125v-125h-125ZM250,125h125v-125h-125ZM375,125h125v-125h-125ZM500,125h125v-125h-125ZM500,0h125v-125h-125ZM125,-125h125v-125h-125ZM250,-125h125v-125h-125ZM375,-125h125v-125h-125Z"></glyph>
    <glyph glyph-name="uni007A" unicode="z" horiz-adv-x="750" d="M0,375h125v-125h-125ZM125,375h125v-125h-125ZM250,375h125v-125h-125ZM375,375h125v-125h-125ZM500,375h125v-125h-125ZM375,250h125v-125h-125ZM250,125h125v-125h-125ZM125,0h125v-125h-125ZM0,-125h125v-125h-125ZM125,-125h125v-125h-125ZM250,-125h125v-125h-125ZM375,-125h125v-125h-125ZM500,-125h125v-125h-125Z"></glyph>
    <glyph glyph-name="uni007B" unicode="{" horiz-adv-x="750" d="M250,625h125v-125h-125ZM375,625h125v-125h-125ZM125,500h125v-125h-125ZM125,375h125v-125h-125ZM0,250h125v-125h-125ZM125,125h125v-125h-125ZM125,0h125v-125h-125ZM250,-125h125v-125h-125ZM375,-125h125v-125h-125Z"></glyph>
    <glyph glyph-name="uni007C" unicode="|" horiz-adv-x="750" d="M250,625h125v-125h-125ZM250,500h125v-125h-125ZM250,375h125v-125h-125ZM250,250h125v-125h-125ZM250,125h125v-125h-125ZM250,0h125v-125h-125ZM250,-125h125v-125h-125Z"></glyph>
    <glyph glyph-name="uni007D" unicode="}" horiz-adv-x="750" d="M125,625h125v-125h-125ZM250,625h125v-125h-125ZM375,500h125v-125h-125ZM375,375h125v-125h-125ZM500,250h125v-125h-125ZM375,125h125v-125h-125ZM375,0h125v-125h-125ZM125,-125h125v-125h-125ZM250,-125h125v-125h-125Z"></glyph>
    <glyph glyph-name="uni007E" unicode="~" horiz-adv-x="750" d="M125,375h125v-125h-125ZM500,375h125v-125h-125ZM0,250h125v-125h-125ZM250,250h125v-125h-125ZM375,250h125v-125h-125Z"></glyph>
    <glyph glyph-name="uni00A1" unicode="¡" horiz-adv-x="750" d="M250,625h125v-125h-125ZM250,375h125v-125h-125ZM250,250h125v-125h-125ZM250,125h125v-125h-125ZM250,0h125v-125h-125ZM250,-125h125v-125h-125Z"></glyph>
    <glyph glyph-name="uni00A2" unicode="¢" horiz-adv-x="750" d="M250,625h125v-125h-125ZM125,500h125v-125h-125ZM250,500h125v-125h-125ZM375,500h125v-125h-125ZM0,375h125v-125h-125ZM250,375h125v-125h-125ZM0,250h125v-125h-125ZM250,250h125v-125h-125ZM0,125h125v-125h-125ZM250,125h125v-125h-125ZM125,0h125v-125h-125ZM250,0h125v-125h-125ZM375,0h125v-125h-125ZM250,-125h125v-125h-125Z"></glyph>
    <glyph glyph-name="uni00A3" unicode="£" horiz-adv-x="750" d="M250,625h125v-125h-125ZM375,625h125v-125h-125ZM125,500h125v-125h-125ZM500,500h125v-125h-125ZM125,375h125v-125h-125ZM0,250h125v-125h-125ZM125,250h125v-125h-125ZM250,250h125v-125h-125ZM125,125h125v-125h-125ZM125,0h125v-125h-125ZM0,-125h125v-125h-125ZM125,-125h125v-125h-125ZM250,-125h125v-125h-125ZM375,-125h125v-125h-125Z"></glyph>
    <glyph glyph-name="uni00A5" unicode="¥" horiz-adv-x="750" d="M0,625h125v-125h-125ZM500,625h125v-125h-125ZM125,500h125v-125h-125ZM375,500h125v-125h-125ZM250,375h125v-125h-125ZM125,250h125v-125h-125ZM250,250h125v-125h-125ZM375,250h125v-125h-125ZM250,125h125v-125h-125ZM125,0h125v-125h-125ZM250,0h125v-125h-125ZM375,0h125v-125h-125ZM250,-125h125v-125h-125Z"></glyph>
    <glyph glyph-name="uni00A7" unicode="§" horiz-adv-x="750" d="M125,625h125v-125h-125ZM250,625h125v-125h-125ZM375,625h125v-125h-125ZM0,500h125v-125h-125ZM125,375h125v-125h-125ZM250,375h125v-125h-125ZM0,250h125v-125h-125ZM250,250h125v-125h-125ZM500,250h125v-125h-125ZM250,125h125v-125h-125ZM375,125h125v-125h-125ZM500,0h125v-125h-125ZM125,-125h125v-125h-125ZM250,-125h125v-125h-125ZM375,-125h125v-125h-125Z"></glyph>
    <glyph glyph-name="uni00A8" unicode="¨" horiz-adv-x="750" d="M125,625h125v-125h-125ZM375,625h125v-125h-125Z"></glyph>
    <glyph glyph-name="uni00A9" unicode="©" horiz-adv-x="750" d="M125,625h125v-125h-125ZM250,625h125v-125h-125ZM375,625h125v-125h-125ZM0,500h125v-125h-125ZM500,500h125v-125h-125ZM0,375h125v-125h-125ZM250,375h125v-125h-125ZM375,375h125v-125h-125ZM0,250h125v-125h-125ZM250,250h125v-125h-125ZM0,125h125v-125h-125ZM250,125h125v-125h-125ZM375,125h125v-125h-125ZM0,0h125v-125h-125ZM500,0h125v-125h-125ZM125,-125h125v-125h-125ZM250,-125h125v-125h-125ZM375,-125h125v-125h-125Z"></glyph>
    <glyph glyph-name="uni00AA" unicode="ª" horiz-adv-x="750" d="M125,625h125v-125h-125ZM250,625h125v-125h-125ZM375,625h125v-125h-125ZM375,500h125v-125h-125ZM125,375h125v-125h-125ZM250,375h125v-125h-125ZM375,375h125v-125h-125ZM500,375h125v-125h-125ZM0,250h125v-125h-125ZM375,250h125v-125h-125ZM125,125h125v-125h-125ZM250,125h125v-125h-125ZM375,125h125v-125h-125ZM0,-125h125v-125h-125ZM125,-125h125v-125h-125ZM250,-125h125v-125h-125ZM375,-125h125v-125h-125ZM500,-125h125v-125h-125Z"></glyph>
    <glyph glyph-name="uni00AB" unicode="«" horiz-adv-x="750" d="M125,375h125v-125h-125ZM375,375h125v-125h-125ZM0,250h125v-125h-125ZM250,250h125v-125h-125ZM125,125h125v-125h-125ZM375,125h125v-125h-125Z"></glyph>
    <glyph glyph-name="uni00AE" unicode="®" horiz-adv-x="750" d="M125,625h125v-125h-125ZM250,625h125v-125h-125ZM375,625h125v-125h-125ZM0,500h125v-125h-125ZM500,500h125v-125h-125ZM0,375h125v-125h-125ZM250,375h125v-125h-125ZM375,375h125v-125h-125ZM0,250h125v-125h-125ZM250,250h125v-125h-125ZM500,250h125v-125h-125ZM0,125h125v-125h-125ZM250,125h125v-125h-125ZM375,125h125v-125h-125ZM0,0h125v-125h-125ZM250,0h125v-125h-125ZM500,0h125v-125h-125ZM125,-125h125v-125h-125ZM250,-125h125v-125h-125ZM375,-125h125v-125h-125Z"></glyph>
    <glyph glyph-name="uni00AF" unicode="¯" horiz-adv-x="750" d="M0,625h125v-125h-125ZM125,625h125v-125h-125ZM250,625h125v-125h-125ZM375,625h125v-125h-125ZM500,625h125v-125h-125Z"></glyph>
    <glyph glyph-name="uni00B0" unicode="°" horiz-adv-x="750" d="M125,625h125v-125h-125ZM250,625h125v-125h-125ZM0,500h125v-125h-125ZM375,500h125v-125h-125ZM125,375h125v-125h-125ZM250,375h125v-125h-125Z"></glyph>
    <glyph glyph-name="uni00B4" unicode="´" horiz-adv-x="750" d="M250,625h125v-125h-125ZM125,500h125v-125h-125Z"></glyph>
    <glyph glyph-name="uni00B6" unicode="¶" horiz-adv-x="750" d="M125,625h125v-125h-125ZM250,625h125v-125h-125ZM375,625h125v-125h-125ZM500,625h125v-125h-125ZM0,500h125v-125h-125ZM250,500h125v-125h-125ZM500,500h125v-125h-125ZM0,375h125v-125h-125ZM250,375h125v-125h-125ZM500,375h125v-125h-125ZM125,250h125v-125h-125ZM250,250h125v-125h-125ZM500,250h125v-125h-125ZM250,125h125v-125h-125ZM500,125h125v-125h-125ZM250,0h125v-125h-125ZM500,0h125v-125h-125ZM250,-125h125v-125h-125ZM500,-125h125v-125h-125Z"></glyph>
    <glyph glyph-name="uni00B7" unicode="·" horiz-adv-x="750" d="M250,250h125v-125h-125Z"></glyph>
    <glyph glyph-name="uni00B8" unicode="¸" horiz-adv-x="750" d="M250,0h125v-125h-125ZM375,0h125v-125h-125ZM125,-125h125v-125h-125Z"></glyph>
    <glyph glyph-name="uni00BA" unicode="º" horiz-adv-x="750" d="M125,625h125v-125h-125ZM250,625h125v-125h-125ZM0,500h125v-125h-125ZM375,500h125v-125h-125ZM0,375h125v-125h-125ZM375,375h125v-125h-125ZM125,250h125v-125h-125ZM250,250h125v-125h-125ZM0,0h125v-125h-125ZM125,0h125v-125h-125ZM250,0h125v-125h-125ZM375,0h125v-125h-125Z"></glyph>
    <glyph glyph-name="uni00BB" unicode="»" horiz-adv-x="750" d="M125,375h125v-125h-125ZM375,375h125v-125h-125ZM250,250h125v-125h-125ZM500,250h125v-125h-125ZM125,125h125v-125h-125ZM375,125h125v-125h-125Z"></glyph>
    <glyph glyph-name="uni00BF" unicode="¿" horiz-adv-x="750" d="M250,625h125v-125h-125ZM250,375h125v-125h-125ZM125,250h125v-125h-125ZM0,125h125v-125h-125ZM0,0h125v-125h-125ZM500,0h125v-125h-125ZM125,-125h125v-125h-125ZM250,-125h125v-125h-125ZM375,-125h125v-125h-125Z"></glyph>
    <glyph glyph-name="uni00C0" unicode="À" horiz-adv-x="750" d="M125,625h125v-125h-125ZM125,500h125v-125h-125ZM250,500h125v-125h-125ZM375,500h125v-125h-125ZM0,375h125v-125h-125ZM500,375h125v-125h-125ZM0,250h125v-125h-125ZM500,250h125v-125h-125ZM0,125h125v-125h-125ZM125,125h125v-125h-125ZM250,125h125v-125h-125ZM375,125h125v-125h-125ZM500,125h125v-125h-125ZM0,0h125v-125h-125ZM500,0h125v-125h-125ZM0,-125h125v-125h-125ZM500,-125h125v-125h-125Z"></glyph>
    <glyph glyph-name="uni00C1" unicode="Á" horiz-adv-x="750" d="M375,625h125v-125h-125ZM125,500h125v-125h-125ZM250,500h125v-125h-125ZM375,500h125v-125h-125ZM0,375h125v-125h-125ZM500,375h125v-125h-125ZM0,250h125v-125h-125ZM500,250h125v-125h-125ZM0,125h125v-125h-125ZM125,125h125v-125h-125ZM250,125h125v-125h-125ZM375,125h125v-125h-125ZM500,125h125v-125h-125ZM0,0h125v-125h-125ZM500,0h125v-125h-125ZM0,-125h125v-125h-125ZM500,-125h125v-125h-125Z"></glyph>
    <glyph glyph-name="uni00C2" unicode="Â" horiz-adv-x="750" d="M250,625h125v-125h-125ZM125,500h125v-125h-125ZM375,500h125v-125h-125ZM0,375h125v-125h-125ZM500,375h125v-125h-125ZM0,250h125v-125h-125ZM500,250h125v-125h-125ZM0,125h125v-125h-125ZM125,125h125v-125h-125ZM250,125h125v-125h-125ZM375,125h125v-125h-125ZM500,125h125v-125h-125ZM0,0h125v-125h-125ZM500,0h125v-125h-125ZM0,-125h125v-125h-125ZM500,-125h125v-125h-125Z"></glyph>
    <glyph glyph-name="uni00C3" unicode="Ã" horiz-adv-x="750" d="M125,625h125v-125h-125ZM500,625h125v-125h-125ZM0,500h125v-125h-125ZM250,500h125v-125h-125ZM375,500h125v-125h-125ZM0,375h125v-125h-125ZM500,375h125v-125h-125ZM0,250h125v-125h-125ZM500,250h125v-125h-125ZM0,125h125v-125h-125ZM125,125h125v-125h-125ZM250,125h125v-125h-125ZM375,125h125v-125h-125ZM500,125h125v-125h-125ZM0,0h125v-125h-125ZM500,0h125v-125h-125ZM0,-125h125v-125h-125ZM500,-125h125v-125h-125Z"></glyph>
    <glyph glyph-name="uni00C4" unicode="Ä" horiz-adv-x="750" d="M125,625h125v-125h-125ZM375,625h125v-125h-125ZM125,500h125v-125h-125ZM250,500h125v-125h-125ZM375,500h125v-125h-125ZM0,375h125v-125h-125ZM500,375h125v-125h-125ZM0,250h125v-125h-125ZM500,250h125v-125h-125ZM0,125h125v-125h-125ZM125,125h125v-125h-125ZM250,125h125v-125h-125ZM375,125h125v-125h-125ZM500,125h125v-125h-125ZM0,0h125v-125h-125ZM500,0h125v-125h-125ZM0,-125h125v-125h-125ZM500,-125h125v-125h-125Z"></glyph>
    <glyph glyph-name="uni00C5" unicode="Å" horiz-adv-x="750" d="M250,625h125v-125h-125ZM125,500h125v-125h-125ZM375,500h125v-125h-125ZM125,375h125v-125h-125ZM250,375h125v-125h-125ZM375,375h125v-125h-125ZM0,250h125v-125h-125ZM500,250h125v-125h-125ZM0,125h125v-125h-125ZM125,125h125v-125h-125ZM250,125h125v-125h-125ZM375,125h125v-125h-125ZM500,125h125v-125h-125ZM0,0h125v-125h-125ZM500,0h125v-125h-125ZM0,-125h125v-125h-125ZM500,-125h125v-125h-125Z"></glyph>
    <glyph glyph-name="uni00C6" unicode="Æ" horiz-adv-x="750" d="M125,625h125v-125h-125ZM250,625h125v-125h-125ZM375,625h125v-125h-125ZM500,625h125v-125h-125ZM0,500h125v-125h-125ZM250,500h125v-125h-125ZM0,375h125v-125h-125ZM250,375h125v-125h-125ZM0,250h125v-125h-125ZM125,250h125v-125h-125ZM250,250h125v-125h-125ZM375,250h125v-125h-125ZM0,125h125v-125h-125ZM250,125h125v-125h-125ZM0,0h125v-125h-125ZM250,0h125v-125h-125ZM0,-125h125v-125h-125ZM250,-125h125v-125h-125ZM375,-125h125v-125h-125ZM500,-125h125v-125h-125Z"></glyph>
    <glyph glyph-name="uni00C7" unicode="Ç" horiz-adv-x="750" d="M125,625h125v-125h-125ZM250,625h125v-125h-125ZM375,625h125v-125h-125ZM500,625h125v-125h-125ZM0,500h125v-125h-125ZM0,375h125v-125h-125ZM0,250h125v-125h-125ZM0,125h125v-125h-125ZM125,0h125v-125h-125ZM250,0h125v-125h-125ZM375,0h125v-125h-125ZM500,0h125v-125h-125ZM250,-125h125v-125h-125ZM375,-125h125v-125h-125Z"></glyph>
    <glyph glyph-name="uni00C8" unicode="È" horiz-adv-x="750" d="M125,625h125v-125h-125ZM0,500h125v-125h-125ZM125,500h125v-125h-125ZM250,500h125v-125h-125ZM375,500h125v-125h-125ZM500,500h125v-125h-125ZM0,375h125v-125h-125ZM0,250h125v-125h-125ZM125,250h125v-125h-125ZM250,250h125v-125h-125ZM375,250h125v-125h-125ZM0,125h125v-125h-125ZM0,0h125v-125h-125ZM0,-125h125v-125h-125ZM125,-125h125v-125h-125ZM250,-125h125v-125h-125ZM375,-125h125v-125h-125ZM500,-125h125v-125h-125Z"></glyph>
    <glyph glyph-name="uni00C9" unicode="É" horiz-adv-x="750" d="M375,625h125v-125h-125ZM0,500h125v-125h-125ZM125,500h125v-125h-125ZM250,500h125v-125h-125ZM375,500h125v-125h-125ZM500,500h125v-125h-125ZM0,375h125v-125h-125ZM0,250h125v-125h-125ZM125,250h125v-125h-125ZM250,250h125v-125h-125ZM375,250h125v-125h-125ZM0,125h125v-125h-125ZM0,0h125v-125h-125ZM0,-125h125v-125h-125ZM125,-125h125v-125h-125ZM250,-125h125v-125h-125ZM375,-125h125v-125h-125ZM500,-125h125v-125h-125Z"></glyph>
    <glyph glyph-name="uni00CA" unicode="Ê" horiz-adv-x="750" d="M250,625h125v-125h-125ZM125,500h125v-125h-125ZM375,500h125v-125h-125ZM0,375h125v-125h-125ZM125,375h125v-125h-125ZM250,375h125v-125h-125ZM375,375h125v-125h-125ZM500,375h125v-125h-125ZM0,250h125v-125h-125ZM0,125h125v-125h-125ZM125,125h125v-125h-125ZM250,125h125v-125h-125ZM375,125h125v-125h-125ZM0,0h125v-125h-125ZM0,-125h125v-125h-125ZM125,-125h125v-125h-125ZM250,-125h125v-125h-125ZM375,-125h125v-125h-125ZM500,-125h125v-125h-125Z"></glyph>
    <glyph glyph-name="uni00CB" unicode="Ë" horiz-adv-x="750" d="M125,625h125v-125h-125ZM375,625h125v-125h-125ZM0,500h125v-125h-125ZM125,500h125v-125h-125ZM250,500h125v-125h-125ZM375,500h125v-125h-125ZM500,500h125v-125h-125ZM0,375h125v-125h-125ZM0,250h125v-125h-125ZM125,250h125v-125h-125ZM250,250h125v-125h-125ZM375,250h125v-125h-125ZM0,125h125v-125h-125ZM0,0h125v-125h-125ZM0,-125h125v-125h-125ZM125,-125h125v-125h-125ZM250,-125h125v-125h-125ZM375,-125h125v-125h-125ZM500,-125h125v-125h-125Z"></glyph>
    <glyph glyph-name="uni00CC" unicode="Ì" horiz-adv-x="750" d="M125,625h125v-125h-125ZM0,500h125v-125h-125ZM125,500h125v-125h-125ZM250,500h125v-125h-125ZM375,500h125v-125h-125ZM500,500h125v-125h-125ZM250,375h125v-125h-125ZM250,250h125v-125h-125ZM250,125h125v-125h-125ZM250,0h125v-125h-125ZM0,-125h125v-125h-125ZM125,-125h125v-125h-125ZM250,-125h125v-125h-125ZM375,-125h125v-125h-125ZM500,-125h125v-125h-125Z"></glyph>
    <glyph glyph-name="uni00CD" unicode="Í" horiz-adv-x="750" d="M375,625h125v-125h-125ZM0,500h125v-125h-125ZM125,500h125v-125h-125ZM250,500h125v-125h-125ZM375,500h125v-125h-125ZM500,500h125v-125h-125ZM250,375h125v-125h-125ZM250,250h125v-125h-125ZM250,125h125v-125h-125ZM250,0h125v-125h-125ZM0,-125h125v-125h-125ZM125,-125h125v-125h-125ZM250,-125h125v-125h-125ZM375,-125h125v-125h-125ZM500,-125h125v-125h-125Z"></glyph>
    <glyph glyph-name="uni00CE" unicode="Î" horiz-adv-x="750" d="M125,625h125v-125h-125ZM375,625h125v-125h-125ZM0,500h125v-125h-125ZM125,500h125v-125h-125ZM250,500h125v-125h-125ZM375,500h125v-125h-125ZM500,500h125v-125h-125ZM250,375h125v-125h-125ZM250,250h125v-125h-125ZM250,125h125v-125h-125ZM250,0h125v-125h-125ZM0,-125h125v-125h-125ZM125,-125h125v-125h-125ZM250,-125h125v-125h-125ZM375,-125h125v-125h-125ZM500,-125h125v-125h-125Z"></glyph>
    <glyph glyph-name="uni00CF" unicode="Ï" horiz-adv-x="750" d="M125,625h125v-125h-125ZM375,625h125v-125h-125ZM125,500h125v-125h-125ZM250,500h125v-125h-125ZM375,500h125v-125h-125ZM250,375h125v-125h-125ZM250,250h125v-125h-125ZM250,125h125v-125h-125ZM250,0h125v-125h-125ZM125,-125h125v-125h-125ZM250,-125h125v-125h-125ZM375,-125h125v-125h-125Z"></glyph>
    <glyph glyph-name="uni00D0" unicode="Ð" horiz-adv-x="750" d="M0,625h125v-125h-125ZM125,625h125v-125h-125ZM250,625h125v-125h-125ZM375,625h125v-125h-125ZM0,500h125v-125h-125ZM500,500h125v-125h-125ZM0,375h125v-125h-125ZM500,375h125v-125h-125ZM0,250h125v-125h-125ZM125,250h125v-125h-125ZM250,250h125v-125h-125ZM500,250h125v-125h-125ZM0,125h125v-125h-125ZM500,125h125v-125h-125ZM0,0h125v-125h-125ZM500,0h125v-125h-125ZM0,-125h125v-125h-125ZM125,-125h125v-125h-125ZM250,-125h125v-125h-125ZM375,-125h125v-125h-125Z"></glyph>
    <glyph glyph-name="uni00D1" unicode="Ñ" horiz-adv-x="750" d="M125,625h125v-125h-125ZM500,625h125v-125h-125ZM0,500h125v-125h-125ZM250,500h125v-125h-125ZM375,500h125v-125h-125ZM0,375h125v-125h-125ZM500,375h125v-125h-125ZM0,250h125v-125h-125ZM125,250h125v-125h-125ZM500,250h125v-125h-125ZM0,125h125v-125h-125ZM250,125h125v-125h-125ZM500,125h125v-125h-125ZM0,0h125v-125h-125ZM375,0h125v-125h-125ZM500,0h125v-125h-125ZM0,-125h125v-125h-125ZM500,-125h125v-125h-125Z"></glyph>
    <glyph glyph-name="uni00D2" unicode="Ò" horiz-adv-x="750" d="M125,625h125v-125h-125ZM125,500h125v-125h-125ZM250,500h125v-125h-125ZM375,500h125v-125h-125ZM0,375h125v-125h-125ZM500,375h125v-125h-125ZM0,250h125v-125h-125ZM500,250h125v-125h-125ZM0,125h125v-125h-125ZM500,125h125v-125h-125ZM0,0h125v-125h-125ZM500,0h125v-125h-125ZM125,-125h125v-125h-125ZM250,-125h125v-125h-125ZM375,-125h125v-125h-125Z"></glyph>
    <glyph glyph-name="uni00D3" unicode="Ó" horiz-adv-x="750" d="M375,625h125v-125h-125ZM125,500h125v-125h-125ZM250,500h125v-125h-125ZM375,500h125v-125h-125ZM0,375h125v-125h-125ZM500,375h125v-125h-125ZM0,250h125v-125h-125ZM500,250h125v-125h-125ZM0,125h125v-125h-125ZM500,125h125v-125h-125ZM0,0h125v-125h-125ZM500,0h125v-125h-125ZM125,-125h125v-125h-125ZM250,-125h125v-125h-125ZM375,-125h125v-125h-125Z"></glyph>
    <glyph glyph-name="uni00D4" unicode="Ô" horiz-adv-x="750" d="M250,625h125v-125h-125ZM125,500h125v-125h-125ZM375,500h125v-125h-125ZM125,375h125v-125h-125ZM375,375h125v-125h-125ZM0,250h125v-125h-125ZM500,250h125v-125h-125ZM0,125h125v-125h-125ZM500,125h125v-125h-125ZM0,0h125v-125h-125ZM500,0h125v-125h-125ZM125,-125h125v-125h-125ZM250,-125h125v-125h-125ZM375,-125h125v-125h-125Z"></glyph>
    <glyph glyph-name="uni00D5" unicode="Õ" horiz-adv-x="750" d="M125,625h125v-125h-125ZM500,625h125v-125h-125ZM0,500h125v-125h-125ZM250,500h125v-125h-125ZM375,500h125v-125h-125ZM0,375h125v-125h-125ZM500,375h125v-125h-125ZM0,250h125v-125h-125ZM500,250h125v-125h-125ZM0,125h125v-125h-125ZM500,125h125v-125h-125ZM0,0h125v-125h-125ZM500,0h125v-125h-125ZM125,-125h125v-125h-125ZM250,-125h125v-125h-125ZM375,-125h125v-125h-125Z"></glyph>
    <glyph glyph-name="uni00D6" unicode="Ö" horiz-adv-x="750" d="M125,625h125v-125h-125ZM375,625h125v-125h-125ZM125,500h125v-125h-125ZM250,500h125v-125h-125ZM375,500h125v-125h-125ZM0,375h125v-125h-125ZM500,375h125v-125h-125ZM0,250h125v-125h-125ZM500,250h125v-125h-125ZM0,125h125v-125h-125ZM500,125h125v-125h-125ZM0,0h125v-125h-125ZM500,0h125v-125h-125ZM125,-125h125v-125h-125ZM250,-125h125v-125h-125ZM375,-125h125v-125h-125Z"></glyph>
    <glyph glyph-name="uni00D7" unicode="×" horiz-adv-x="750" d="M0,375h125v-125h-125ZM500,375h125v-125h-125ZM125,250h125v-125h-125ZM375,250h125v-125h-125ZM250,125h125v-125h-125ZM125,0h125v-125h-125ZM375,0h125v-125h-125ZM0,-125h125v-125h-125ZM500,-125h125v-125h-125Z"></glyph>
    <glyph glyph-name="uni00D8" unicode="Ø" horiz-adv-x="750" d="M250,625h125v-125h-125ZM375,625h125v-125h-125ZM500,625h125v-125h-125ZM0,500h125v-125h-125ZM375,500h125v-125h-125ZM500,500h125v-125h-125ZM0,375h125v-125h-125ZM250,375h125v-125h-125ZM500,375h125v-125h-125ZM0,250h125v-125h-125ZM250,250h125v-125h-125ZM500,250h125v-125h-125ZM0,125h125v-125h-125ZM250,125h125v-125h-125ZM500,125h125v-125h-125ZM0,0h125v-125h-125ZM125,0h125v-125h-125ZM500,0h125v-125h-125ZM0,-125h125v-125h-125ZM125,-125h125v-125h-125ZM250,-125h125v-125h-125Z"></glyph>
    <glyph glyph-name="uni00D9" unicode="Ù" horiz-adv-x="750" d="M125,625h125v-125h-125ZM0,500h125v-125h-125ZM500,500h125v-125h-125ZM0,375h125v-125h-125ZM500,375h125v-125h-125ZM0,250h125v-125h-125ZM500,250h125v-125h-125ZM0,125h125v-125h-125ZM500,125h125v-125h-125ZM0,0h125v-125h-125ZM500,0h125v-125h-125ZM125,-125h125v-125h-125ZM250,-125h125v-125h-125ZM375,-125h125v-125h-125Z"></glyph>
    <glyph glyph-name="uni00DA" unicode="Ú" horiz-adv-x="750" d="M375,625h125v-125h-125ZM0,500h125v-125h-125ZM500,500h125v-125h-125ZM0,375h125v-125h-125ZM500,375h125v-125h-125ZM0,250h125v-125h-125ZM500,250h125v-125h-125ZM0,125h125v-125h-125ZM500,125h125v-125h-125ZM0,0h125v-125h-125ZM500,0h125v-125h-125ZM125,-125h125v-125h-125ZM250,-125h125v-125h-125ZM375,-125h125v-125h-125Z"></glyph>
    <glyph glyph-name="uni00DB" unicode="Û" horiz-adv-x="750" d="M250,625h125v-125h-125ZM125,500h125v-125h-125ZM375,500h125v-125h-125ZM0,375h125v-125h-125ZM500,375h125v-125h-125ZM0,250h125v-125h-125ZM500,250h125v-125h-125ZM0,125h125v-125h-125ZM500,125h125v-125h-125ZM0,0h125v-125h-125ZM500,0h125v-125h-125ZM125,-125h125v-125h-125ZM250,-125h125v-125h-125ZM375,-125h125v-125h-125Z"></glyph>
    <glyph glyph-name="uni00DC" unicode="Ü" horiz-adv-x="750" d="M125,625h125v-125h-125ZM375,625h125v-125h-125ZM0,500h125v-125h-125ZM500,500h125v-125h-125ZM0,375h125v-125h-125ZM500,375h125v-125h-125ZM0,250h125v-125h-125ZM500,250h125v-125h-125ZM0,125h125v-125h-125ZM500,125h125v-125h-125ZM0,0h125v-125h-125ZM500,0h125v-125h-125ZM125,-125h125v-125h-125ZM250,-125h125v-125h-125ZM375,-125h125v-125h-125Z"></glyph>
    <glyph glyph-name="uni00DD" unicode="Ý" horiz-adv-x="750" d="M375,625h125v-125h-125ZM0,500h125v-125h-125ZM500,500h125v-125h-125ZM125,375h125v-125h-125ZM375,375h125v-125h-125ZM250,250h125v-125h-125ZM250,125h125v-125h-125ZM250,0h125v-125h-125ZM250,-125h125v-125h-125Z"></glyph>
    <glyph glyph-name="uni00DE" unicode="Þ" horiz-adv-x="750" d="M0,625h125v-125h-125ZM0,500h125v-125h-125ZM125,500h125v-125h-125ZM250,500h125v-125h-125ZM375,500h125v-125h-125ZM0,375h125v-125h-125ZM500,375h125v-125h-125ZM0,250h125v-125h-125ZM500,250h125v-125h-125ZM0,125h125v-125h-125ZM125,125h125v-125h-125ZM250,125h125v-125h-125ZM375,125h125v-125h-125ZM0,0h125v-125h-125ZM0,-125h125v-125h-125Z"></glyph>
    <glyph glyph-name="uni00DF" unicode="ß" horiz-adv-x="750" d="M125,625h125v-125h-125ZM250,625h125v-125h-125ZM0,500h125v-125h-125ZM375,500h125v-125h-125ZM0,375h125v-125h-125ZM375,375h125v-125h-125ZM0,250h125v-125h-125ZM250,250h125v-125h-125ZM0,125h125v-125h-125ZM375,125h125v-125h-125ZM0,0h125v-125h-125ZM375,0h125v-125h-125ZM0,-125h125v-125h-125ZM250,-125h125v-125h-125ZM375,-125h125v-125h-125Z"></glyph>
    <glyph glyph-name="uni00E0" unicode="à" horiz-adv-x="750" d="M125,625h125v-125h-125ZM125,375h125v-125h-125ZM250,375h125v-125h-125ZM375,375h125v-125h-125ZM500,250h125v-125h-125ZM125,125h125v-125h-125ZM250,125h125v-125h-125ZM375,125h125v-125h-125ZM500,125h125v-125h-125ZM0,0h125v-125h-125ZM500,0h125v-125h-125ZM125,-125h125v-125h-125ZM250,-125h125v-125h-125ZM375,-125h125v-125h-125ZM500,-125h125v-125h-125Z"></glyph>
    <glyph glyph-name="uni00E1" unicode="á" horiz-adv-x="750" d="M375,625h125v-125h-125ZM125,375h125v-125h-125ZM250,375h125v-125h-125ZM375,375h125v-125h-125ZM500,250h125v-125h-125ZM125,125h125v-125h-125ZM250,125h125v-125h-125ZM375,125h125v-125h-125ZM500,125h125v-125h-125ZM0,0h125v-125h-125ZM500,0h125v-125h-125ZM125,-125h125v-125h-125ZM250,-125h125v-125h-125ZM375,-125h125v-125h-125ZM500,-125h125v-125h-125Z"></glyph>
    <glyph glyph-name="uni00E2" unicode="â" horiz-adv-x="750" d="M250,625h125v-125h-125ZM125,500h125v-125h-125ZM375,500h125v-125h-125ZM125,375h125v-125h-125ZM250,375h125v-125h-125ZM375,375h125v-125h-125ZM500,250h125v-125h-125ZM125,125h125v-125h-125ZM250,125h125v-125h-125ZM375,125h125v-125h-125ZM500,125h125v-125h-125ZM0,0h125v-125h-125ZM500,0h125v-125h-125ZM125,-125h125v-125h-125ZM250,-125h125v-125h-125ZM375,-125h125v-125h-125ZM500,-125h125v-125h-125Z"></glyph>
    <glyph glyph-name="uni00E3" unicode="ã" horiz-adv-x="750" d="M125,625h125v-125h-125ZM500,625h125v-125h-125ZM0,500h125v-125h-125ZM250,500h125v-125h-125ZM375,500h125v-125h-125ZM125,375h125v-125h-125ZM250,375h125v-125h-125ZM375,375h125v-125h-125ZM500,250h125v-125h-125ZM125,125h125v-125h-125ZM250,125h125v-125h-125ZM375,125h125v-125h-125ZM500,125h125v-125h-125ZM0,0h125v-125h-125ZM500,0h125v-125h-125ZM125,-125h125v-125h-125ZM250,-125h125v-125h-125ZM375,-125h125v-125h-125ZM500,-125h125v-125h-125Z"></glyph>
    <glyph glyph-name="uni00E4" unicode="ä" horiz-adv-x="750" d="M125,625h125v-125h-125ZM375,625h125v-125h-125ZM125,375h125v-125h-125ZM250,375h125v-125h-125ZM375,375h125v-125h-125ZM500,250h125v-125h-125ZM125,125h125v-125h-125ZM250,125h125v-125h-125ZM375,125h125v-125h-125ZM500,125h125v-125h-125ZM0,0h125v-125h-125ZM500,0h125v-125h-125ZM125,-125h125v-125h-125ZM250,-125h125v-125h-125ZM375,-125h125v-125h-125ZM500,-125h125v-125h-125Z"></glyph>
    <glyph glyph-name="uni00E5" unicode="å" horiz-adv-x="750" d="M125,625h125v-125h-125ZM250,625h125v-125h-125ZM375,625h125v-125h-125ZM125,500h125v-125h-125ZM375,500h125v-125h-125ZM125,375h125v-125h-125ZM250,375h125v-125h-125ZM375,375h125v-125h-125ZM500,250h125v-125h-125ZM125,125h125v-125h-125ZM250,125h125v-125h-125ZM375,125h125v-125h-125ZM500,125h125v-125h-125ZM0,0h125v-125h-125ZM500,0h125v-125h-125ZM125,-125h125v-125h-125ZM250,-125h125v-125h-125ZM375,-125h125v-125h-125ZM500,-125h125v-125h-125Z"></glyph>
    <glyph glyph-name="uni00E6" unicode="æ" horiz-adv-x="750" d="M125,375h125v-125h-125ZM250,375h125v-125h-125ZM500,375h125v-125h-125ZM0,250h125v-125h-125ZM250,250h125v-125h-125ZM500,250h125v-125h-125ZM125,125h125v-125h-125ZM250,125h125v-125h-125ZM375,125h125v-125h-125ZM500,125h125v-125h-125ZM0,0h125v-125h-125ZM250,0h125v-125h-125ZM125,-125h125v-125h-125ZM375,-125h125v-125h-125ZM500,-125h125v-125h-125Z"></glyph>
    <glyph glyph-name="uni00E7" unicode="ç" horiz-adv-x="750" d="M125,375h125v-125h-125ZM250,375h125v-125h-125ZM375,375h125v-125h-125ZM0,250h125v-125h-125ZM500,250h125v-125h-125ZM0,125h125v-125h-125ZM125,0h125v-125h-125ZM250,0h125v-125h-125ZM375,0h125v-125h-125ZM250,-125h125v-125h-125ZM375,-125h125v-125h-125Z"></glyph>
    <glyph glyph-name="uni00E8" unicode="è" horiz-adv-x="750" d="M125,625h125v-125h-125ZM125,375h125v-125h-125ZM250,375h125v-125h-125ZM375,375h125v-125h-125ZM0,250h125v-125h-125ZM500,250h125v-125h-125ZM0,125h125v-125h-125ZM125,125h125v-125h-125ZM250,125h125v-125h-125ZM375,125h125v-125h-125ZM500,125h125v-125h-125ZM0,0h125v-125h-125ZM125,-125h125v-125h-125ZM250,-125h125v-125h-125ZM375,-125h125v-125h-125ZM500,-125h125v-125h-125Z"></glyph>
    <glyph glyph-name="uni00E9" unicode="é" horiz-adv-x="750" d="M375,625h125v-125h-125ZM125,375h125v-125h-125ZM250,375h125v-125h-125ZM375,375h125v-125h-125ZM0,250h125v-125h-125ZM500,250h125v-125h-125ZM0,125h125v-125h-125ZM125,125h125v-125h-125ZM250,125h125v-125h-125ZM375,125h125v-125h-125ZM500,125h125v-125h-125ZM0,0h125v-125h-125ZM125,-125h125v-125h-125ZM250,-125h125v-125h-125ZM375,-125h125v-125h-125ZM500,-125h125v-125h-125Z"></glyph>
    <glyph glyph-name="uni00EA" unicode="ê" horiz-adv-x="750" d="M250,625h125v-125h-125ZM125,500h125v-125h-125ZM375,500h125v-125h-125ZM125,375h125v-125h-125ZM250,375h125v-125h-125ZM375,375h125v-125h-125ZM0,250h125v-125h-125ZM500,250h125v-125h-125ZM0,125h125v-125h-125ZM125,125h125v-125h-125ZM250,125h125v-125h-125ZM375,125h125v-125h-125ZM500,125h125v-125h-125ZM0,0h125v-125h-125ZM125,-125h125v-125h-125ZM250,-125h125v-125h-125ZM375,-125h125v-125h-125ZM500,-125h125v-125h-125Z"></glyph>
    <glyph glyph-name="uni00EB" unicode="ë" horiz-adv-x="750" d="M125,625h125v-125h-125ZM375,625h125v-125h-125ZM125,375h125v-125h-125ZM250,375h125v-125h-125ZM375,375h125v-125h-125ZM0,250h125v-125h-125ZM500,250h125v-125h-125ZM0,125h125v-125h-125ZM125,125h125v-125h-125ZM250,125h125v-125h-125ZM375,125h125v-125h-125ZM500,125h125v-125h-125ZM0,0h125v-125h-125ZM125,-125h125v-125h-125ZM250,-125h125v-125h-125ZM375,-125h125v-125h-125ZM500,-125h125v-125h-125Z"></glyph>
    <glyph glyph-name="uni00EC" unicode="ì" horiz-adv-x="750" d="M125,625h125v-125h-125ZM125,375h125v-125h-125ZM250,375h125v-125h-125ZM250,250h125v-125h-125ZM250,125h125v-125h-125ZM250,0h125v-125h-125ZM125,-125h125v-125h-125ZM250,-125h125v-125h-125ZM375,-125h125v-125h-125Z"></glyph>
    <glyph glyph-name="uni00ED" unicode="í" horiz-adv-x="750" d="M375,625h125v-125h-125ZM250,375h125v-125h-125ZM375,375h125v-125h-125ZM250,250h125v-125h-125ZM250,125h125v-125h-125ZM250,0h125v-125h-125ZM125,-125h125v-125h-125ZM250,-125h125v-125h-125ZM375,-125h125v-125h-125Z"></glyph>
    <glyph glyph-name="uni00EE" unicode="î" horiz-adv-x="750" d="M250,625h125v-125h-125ZM125,500h125v-125h-125ZM375,500h125v-125h-125ZM250,250h125v-125h-125ZM250,125h125v-125h-125ZM250,0h125v-125h-125ZM125,-125h125v-125h-125ZM250,-125h125v-125h-125ZM375,-125h125v-125h-125Z"></glyph>
    <glyph glyph-name="uni00EF" unicode="ï" horiz-adv-x="750" d="M125,625h125v-125h-125ZM375,625h125v-125h-125ZM250,250h125v-125h-125ZM250,125h125v-125h-125ZM250,0h125v-125h-125ZM125,-125h125v-125h-125ZM250,-125h125v-125h-125ZM375,-125h125v-125h-125Z"></glyph>
    <glyph glyph-name="uni00F0" unicode="ð" horiz-adv-x="750" d="M125,625h125v-125h-125ZM375,625h125v-125h-125ZM250,500h125v-125h-125ZM375,500h125v-125h-125ZM125,375h125v-125h-125ZM250,375h125v-125h-125ZM375,375h125v-125h-125ZM0,250h125v-125h-125ZM500,250h125v-125h-125ZM0,125h125v-125h-125ZM500,125h125v-125h-125ZM0,0h125v-125h-125ZM500,0h125v-125h-125ZM125,-125h125v-125h-125ZM250,-125h125v-125h-125ZM375,-125h125v-125h-125Z"></glyph>
    <glyph glyph-name="uni00F1" unicode="ñ" horiz-adv-x="750" d="M125,625h125v-125h-125ZM500,625h125v-125h-125ZM0,500h125v-125h-125ZM250,500h125v-125h-125ZM375,500h125v-125h-125ZM125,375h125v-125h-125ZM250,375h125v-125h-125ZM375,375h125v-125h-125ZM0,250h125v-125h-125ZM500,250h125v-125h-125ZM0,125h125v-125h-125ZM500,125h125v-125h-125ZM0,0h125v-125h-125ZM500,0h125v-125h-125ZM0,-125h125v-125h-125ZM500,-125h125v-125h-125Z"></glyph>
    <glyph glyph-name="uni00F2" unicode="ò" horiz-adv-x="750" d="M125,625h125v-125h-125ZM125,375h125v-125h-125ZM250,375h125v-125h-125ZM375,375h125v-125h-125ZM0,250h125v-125h-125ZM500,250h125v-125h-125ZM0,125h125v-125h-125ZM500,125h125v-125h-125ZM0,0h125v-125h-125ZM500,0h125v-125h-125ZM125,-125h125v-125h-125ZM250,-125h125v-125h-125ZM375,-125h125v-125h-125Z"></glyph>
    <glyph glyph-name="uni00F3" unicode="ó" horiz-adv-x="750" d="M375,625h125v-125h-125ZM125,375h125v-125h-125ZM250,375h125v-125h-125ZM375,375h125v-125h-125ZM0,250h125v-125h-125ZM500,250h125v-125h-125ZM0,125h125v-125h-125ZM500,125h125v-125h-125ZM0,0h125v-125h-125ZM500,0h125v-125h-125ZM125,-125h125v-125h-125ZM250,-125h125v-125h-125ZM375,-125h125v-125h-125Z"></glyph>
    <glyph glyph-name="uni00F4" unicode="ô" horiz-adv-x="750" d="M250,625h125v-125h-125ZM125,500h125v-125h-125ZM375,500h125v-125h-125ZM125,375h125v-125h-125ZM250,375h125v-125h-125ZM375,375h125v-125h-125ZM0,250h125v-125h-125ZM500,250h125v-125h-125ZM0,125h125v-125h-125ZM500,125h125v-125h-125ZM0,0h125v-125h-125ZM500,0h125v-125h-125ZM125,-125h125v-125h-125ZM250,-125h125v-125h-125ZM375,-125h125v-125h-125Z"></glyph>
    <glyph glyph-name="uni00F5" unicode="õ" horiz-adv-x="750" d="M125,625h125v-125h-125ZM500,625h125v-125h-125ZM0,500h125v-125h-125ZM250,500h125v-125h-125ZM375,500h125v-125h-125ZM125,375h125v-125h-125ZM250,375h125v-125h-125ZM375,375h125v-125h-125ZM0,250h125v-125h-125ZM500,250h125v-125h-125ZM0,125h125v-125h-125ZM500,125h125v-125h-125ZM0,0h125v-125h-125ZM500,0h125v-125h-125ZM125,-125h125v-125h-125ZM250,-125h125v-125h-125ZM375,-125h125v-125h-125Z"></glyph>
    <glyph glyph-name="uni00F6" unicode="ö" horiz-adv-x="750" d="M125,625h125v-125h-125ZM375,625h125v-125h-125ZM125,375h125v-125h-125ZM250,375h125v-125h-125ZM375,375h125v-125h-125ZM0,250h125v-125h-125ZM500,250h125v-125h-125ZM0,125h125v-125h-125ZM500,125h125v-125h-125ZM0,0h125v-125h-125ZM500,0h125v-125h-125ZM125,-125h125v-125h-125ZM250,-125h125v-125h-125ZM375,-125h125v-125h-125Z"></glyph>
    <glyph glyph-name="uni00F7" unicode="÷" horiz-adv-x="750" d="M250,500h125v-125h-125ZM0,250h125v-125h-125ZM125,250h125v-125h-125ZM250,250h125v-125h-125ZM375,250h125v-125h-125ZM500,250h125v-125h-125ZM250,0h125v-125h-125Z"></glyph>
    <glyph glyph-name="uni00F8" unicode="ø" horiz-adv-x="750" d="M125,375h125v-125h-125ZM250,375h125v-125h-125ZM375,375h125v-125h-125ZM500,375h125v-125h-125ZM0,250h125v-125h-125ZM375,250h125v-125h-125ZM500,250h125v-125h-125ZM0,125h125v-125h-125ZM250,125h125v-125h-125ZM500,125h125v-125h-125ZM0,0h125v-125h-125ZM125,0h125v-125h-125ZM500,0h125v-125h-125ZM0,-125h125v-125h-125ZM125,-125h125v-125h-125ZM250,-125h125v-125h-125Z"></glyph>
    <glyph glyph-name="uni00F9" unicode="ù" horiz-adv-x="750" d="M125,625h125v-125h-125ZM0,375h125v-125h-125ZM500,375h125v-125h-125ZM0,250h125v-125h-125ZM500,250h125v-125h-125ZM0,125h125v-125h-125ZM500,125h125v-125h-125ZM0,0h125v-125h-125ZM500,0h125v-125h-125ZM125,-125h125v-125h-125ZM250,-125h125v-125h-125ZM375,-125h125v-125h-125Z"></glyph>
    <glyph glyph-name="uni00FA" unicode="ú" horiz-adv-x="750" d="M375,625h125v-125h-125ZM0,375h125v-125h-125ZM500,375h125v-125h-125ZM0,250h125v-125h-125ZM500,250h125v-125h-125ZM0,125h125v-125h-125ZM500,125h125v-125h-125ZM0,0h125v-125h-125ZM500,0h125v-125h-125ZM125,-125h125v-125h-125ZM250,-125h125v-125h-125ZM375,-125h125v-125h-125Z"></glyph>
    <glyph glyph-name="uni00FB" unicode="û" horiz-adv-x="750" d="M250,625h125v-125h-125ZM125,500h125v-125h-125ZM375,500h125v-125h-125ZM0,375h125v-125h-125ZM500,375h125v-125h-125ZM0,250h125v-125h-125ZM500,250h125v-125h-125ZM0,125h125v-125h-125ZM500,125h125v-125h-125ZM0,0h125v-125h-125ZM500,0h125v-125h-125ZM125,-125h125v-125h-125ZM250,-125h125v-125h-125ZM375,-125h125v-125h-125Z"></glyph>
    <glyph glyph-name="uni00FC" unicode="ü" horiz-adv-x="750" d="M125,625h125v-125h-125ZM375,625h125v-125h-125ZM0,375h125v-125h-125ZM500,375h125v-125h-125ZM0,250h125v-125h-125ZM500,250h125v-125h-125ZM0,125h125v-125h-125ZM500,125h125v-125h-125ZM0,0h125v-125h-125ZM500,0h125v-125h-125ZM125,-125h125v-125h-125ZM250,-125h125v-125h-125ZM375,-125h125v-125h-125Z"></glyph>
    <glyph glyph-name="uni00FD" unicode="ý" horiz-adv-x="750" d="M375,625h125v-125h-125ZM0,375h125v-125h-125ZM500,375h125v-125h-125ZM0,250h125v-125h-125ZM500,250h125v-125h-125ZM125,125h125v-125h-125ZM250,125h125v-125h-125ZM375,125h125v-125h-125ZM500,125h125v-125h-125ZM500,0h125v-125h-125ZM125,-125h125v-125h-125ZM250,-125h125v-125h-125ZM375,-125h125v-125h-125Z"></glyph>
    <glyph glyph-name="uni00FE" unicode="þ" horiz-adv-x="750" d="M0,625h125v-125h-125ZM0,500h125v-125h-125ZM0,375h125v-125h-125ZM125,375h125v-125h-125ZM250,375h125v-125h-125ZM375,375h125v-125h-125ZM0,250h125v-125h-125ZM500,250h125v-125h-125ZM0,125h125v-125h-125ZM500,125h125v-125h-125ZM0,0h125v-125h-125ZM125,0h125v-125h-125ZM250,0h125v-125h-125ZM375,0h125v-125h-125ZM0,-125h125v-125h-125Z"></glyph>
    <glyph glyph-name="uni00FF" unicode="ÿ" horiz-adv-x="750" d="M125,625h125v-125h-125ZM375,625h125v-125h-125ZM0,375h125v-125h-125ZM500,375h125v-125h-125ZM0,250h125v-125h-125ZM500,250h125v-125h-125ZM125,125h125v-125h-125ZM250,125h125v-125h-125ZM375,125h125v-125h-125ZM500,125h125v-125h-125ZM500,0h125v-125h-125ZM125,-125h125v-125h-125ZM250,-125h125v-125h-125ZM375,-125h125v-125h-125Z"></glyph>
    <glyph glyph-name="uni0100" unicode="Ā" horiz-adv-x="750" d="M0,625h125v-125h-125ZM125,625h125v-125h-125ZM250,625h125v-125h-125ZM375,625h125v-125h-125ZM500,625h125v-125h-125ZM125,500h125v-125h-125ZM250,500h125v-125h-125ZM375,500h125v-125h-125ZM0,375h125v-125h-125ZM500,375h125v-125h-125ZM0,250h125v-125h-125ZM500,250h125v-125h-125ZM0,125h125v-125h-125ZM125,125h125v-125h-125ZM250,125h125v-125h-125ZM375,125h125v-125h-125ZM500,125h125v-125h-125ZM0,0h125v-125h-125ZM500,0h125v-125h-125ZM0,-125h125v-125h-125ZM500,-125h125v-125h-125Z"></glyph>
    <glyph glyph-name="uni0101" unicode="ā" horiz-adv-x="750" d="M0,625h125v-125h-125ZM125,625h125v-125h-125ZM250,625h125v-125h-125ZM375,625h125v-125h-125ZM500,625h125v-125h-125ZM125,375h125v-125h-125ZM250,375h125v-125h-125ZM375,375h125v-125h-125ZM500,250h125v-125h-125ZM125,125h125v-125h-125ZM250,125h125v-125h-125ZM375,125h125v-125h-125ZM500,125h125v-125h-125ZM0,0h125v-125h-125ZM500,0h125v-125h-125ZM125,-125h125v-125h-125ZM250,-125h125v-125h-125ZM375,-125h125v-125h-125ZM500,-125h125v-125h-125Z"></glyph>
    <glyph glyph-name="uni0102" unicode="Ă" horiz-adv-x="750" d="M0,625h125v-125h-125ZM500,625h125v-125h-125ZM125,500h125v-125h-125ZM250,500h125v-125h-125ZM375,500h125v-125h-125ZM0,375h125v-125h-125ZM500,375h125v-125h-125ZM0,250h125v-125h-125ZM500,250h125v-125h-125ZM0,125h125v-125h-125ZM125,125h125v-125h-125ZM250,125h125v-125h-125ZM375,125h125v-125h-125ZM500,125h125v-125h-125ZM0,0h125v-125h-125ZM500,0h125v-125h-125ZM0,-125h125v-125h-125ZM500,-125h125v-125h-125Z"></glyph>
    <glyph glyph-name="uni0103" unicode="ă" horiz-adv-x="750" d="M0,625h125v-125h-125ZM500,625h125v-125h-125ZM125,500h125v-125h-125ZM250,500h125v-125h-125ZM375,500h125v-125h-125ZM125,375h125v-125h-125ZM250,375h125v-125h-125ZM375,375h125v-125h-125ZM500,250h125v-125h-125ZM125,125h125v-125h-125ZM250,125h125v-125h-125ZM375,125h125v-125h-125ZM500,125h125v-125h-125ZM0,0h125v-125h-125ZM500,0h125v-125h-125ZM125,-125h125v-125h-125ZM250,-125h125v-125h-125ZM375,-125h125v-125h-125ZM500,-125h125v-125h-125Z"></glyph>
    <glyph glyph-name="uni0104" unicode="Ą" horiz-adv-x="750" d="M125,625h125v-125h-125ZM250,625h125v-125h-125ZM375,625h125v-125h-125ZM0,500h125v-125h-125ZM500,500h125v-125h-125ZM0,375h125v-125h-125ZM500,375h125v-125h-125ZM0,250h125v-125h-125ZM125,250h125v-125h-125ZM250,250h125v-125h-125ZM375,250h125v-125h-125ZM500,250h125v-125h-125ZM0,125h125v-125h-125ZM500,125h125v-125h-125ZM0,0h125v-125h-125ZM500,0h125v-125h-125ZM0,-125h125v-125h-125ZM375,-125h125v-125h-125ZM500,-125h125v-125h-125Z"></glyph>
    <glyph glyph-name="uni0105" unicode="ą" horiz-adv-x="750" d="M125,375h125v-125h-125ZM250,375h125v-125h-125ZM375,375h125v-125h-125ZM500,250h125v-125h-125ZM125,125h125v-125h-125ZM250,125h125v-125h-125ZM375,125h125v-125h-125ZM500,125h125v-125h-125ZM0,0h125v-125h-125ZM500,0h125v-125h-125ZM125,-125h125v-125h-125ZM250,-125h125v-125h-125ZM375,-125h125v-125h-125ZM500,-125h125v-125h-125Z"></glyph>
    <glyph glyph-name="uni0106" unicode="Ć" horiz-adv-x="750" d="M375,625h125v-125h-125ZM125,500h125v-125h-125ZM250,500h125v-125h-125ZM375,500h125v-125h-125ZM500,500h125v-125h-125ZM0,375h125v-125h-125ZM0,250h125v-125h-125ZM0,125h125v-125h-125ZM0,0h125v-125h-125ZM125,-125h125v-125h-125ZM250,-125h125v-125h-125ZM375,-125h125v-125h-125ZM500,-125h125v-125h-125Z"></glyph>
    <glyph glyph-name="uni0107" unicode="ć" horiz-adv-x="750" d="M375,625h125v-125h-125ZM125,375h125v-125h-125ZM250,375h125v-125h-125ZM375,375h125v-125h-125ZM0,250h125v-125h-125ZM500,250h125v-125h-125ZM0,125h125v-125h-125ZM0,0h125v-125h-125ZM500,0h125v-125h-125ZM125,-125h125v-125h-125ZM250,-125h125v-125h-125ZM375,-125h125v-125h-125Z"></glyph>
    <glyph glyph-name="uni010A" unicode="Ċ" horiz-adv-x="750" d="M250,625h125v-125h-125ZM125,500h125v-125h-125ZM250,500h125v-125h-125ZM375,500h125v-125h-125ZM500,500h125v-125h-125ZM0,375h125v-125h-125ZM0,250h125v-125h-125ZM0,125h125v-125h-125ZM0,0h125v-125h-125ZM125,-125h125v-125h-125ZM250,-125h125v-125h-125ZM375,-125h125v-125h-125ZM500,-125h125v-125h-125Z"></glyph>
    <glyph glyph-name="uni010B" unicode="ċ" horiz-adv-x="750" d="M250,625h125v-125h-125ZM125,375h125v-125h-125ZM250,375h125v-125h-125ZM375,375h125v-125h-125ZM0,250h125v-125h-125ZM500,250h125v-125h-125ZM0,125h125v-125h-125ZM0,0h125v-125h-125ZM500,0h125v-125h-125ZM125,-125h125v-125h-125ZM250,-125h125v-125h-125ZM375,-125h125v-125h-125Z"></glyph>
    <glyph glyph-name="uni010C" unicode="Č" horiz-adv-x="750" d="M125,625h125v-125h-125ZM375,625h125v-125h-125ZM250,500h125v-125h-125ZM125,375h125v-125h-125ZM250,375h125v-125h-125ZM375,375h125v-125h-125ZM500,375h125v-125h-125ZM0,250h125v-125h-125ZM0,125h125v-125h-125ZM0,0h125v-125h-125ZM125,-125h125v-125h-125ZM250,-125h125v-125h-125ZM375,-125h125v-125h-125ZM500,-125h125v-125h-125Z"></glyph>
    <glyph glyph-name="uni010D" unicode="č" horiz-adv-x="750" d="M125,625h125v-125h-125ZM375,625h125v-125h-125ZM250,500h125v-125h-125ZM125,375h125v-125h-125ZM250,375h125v-125h-125ZM375,375h125v-125h-125ZM0,250h125v-125h-125ZM500,250h125v-125h-125ZM0,125h125v-125h-125ZM0,0h125v-125h-125ZM500,0h125v-125h-125ZM125,-125h125v-125h-125ZM250,-125h125v-125h-125ZM375,-125h125v-125h-125Z"></glyph>
    <glyph glyph-name="uni010E" unicode="Ď" horiz-adv-x="750" d="M125,625h125v-125h-125ZM375,625h125v-125h-125ZM250,500h125v-125h-125ZM0,375h125v-125h-125ZM125,375h125v-125h-125ZM250,375h125v-125h-125ZM375,375h125v-125h-125ZM0,250h125v-125h-125ZM500,250h125v-125h-125ZM0,125h125v-125h-125ZM500,125h125v-125h-125ZM0,0h125v-125h-125ZM500,0h125v-125h-125ZM0,-125h125v-125h-125ZM125,-125h125v-125h-125ZM250,-125h125v-125h-125ZM375,-125h125v-125h-125Z"></glyph>
    <glyph glyph-name="uni010F" unicode="ď" horiz-adv-x="750" d="M500,625h125v-125h-125ZM375,500h125v-125h-125ZM500,500h125v-125h-125ZM250,375h125v-125h-125ZM375,375h125v-125h-125ZM500,375h125v-125h-125ZM125,250h125v-125h-125ZM500,250h125v-125h-125ZM0,125h125v-125h-125ZM500,125h125v-125h-125ZM0,0h125v-125h-125ZM500,0h125v-125h-125ZM125,-125h125v-125h-125ZM250,-125h125v-125h-125ZM375,-125h125v-125h-125Z"></glyph>
    <glyph glyph-name="uni0110" unicode="Đ" horiz-adv-x="750" d="M0,625h125v-125h-125ZM125,625h125v-125h-125ZM250,625h125v-125h-125ZM375,625h125v-125h-125ZM0,500h125v-125h-125ZM500,500h125v-125h-125ZM0,375h125v-125h-125ZM500,375h125v-125h-125ZM0,250h125v-125h-125ZM125,250h125v-125h-125ZM250,250h125v-125h-125ZM500,250h125v-125h-125ZM0,125h125v-125h-125ZM500,125h125v-125h-125ZM0,0h125v-125h-125ZM500,0h125v-125h-125ZM0,-125h125v-125h-125ZM125,-125h125v-125h-125ZM250,-125h125v-125h-125ZM375,-125h125v-125h-125Z"></glyph>
    <glyph glyph-name="uni0111" unicode="đ" horiz-adv-x="750" d="M125,625h125v-125h-125ZM250,625h125v-125h-125ZM375,625h125v-125h-125ZM125,500h125v-125h-125ZM250,500h125v-125h-125ZM375,500h125v-125h-125ZM250,375h125v-125h-125ZM500,375h125v-125h-125ZM125,250h125v-125h-125ZM500,250h125v-125h-125ZM0,125h125v-125h-125ZM500,125h125v-125h-125ZM0,0h125v-125h-125ZM500,0h125v-125h-125ZM125,-125h125v-125h-125ZM250,-125h125v-125h-125ZM375,-125h125v-125h-125Z"></glyph>
    <glyph glyph-name="uni0112" unicode="Ē" horiz-adv-x="750" d="M0,625h125v-125h-125ZM125,625h125v-125h-125ZM250,625h125v-125h-125ZM375,625h125v-125h-125ZM500,625h125v-125h-125ZM0,500h125v-125h-125ZM125,500h125v-125h-125ZM250,500h125v-125h-125ZM375,500h125v-125h-125ZM500,500h125v-125h-125ZM0,375h125v-125h-125ZM0,250h125v-125h-125ZM125,250h125v-125h-125ZM250,250h125v-125h-125ZM375,250h125v-125h-125ZM0,125h125v-125h-125ZM0,0h125v-125h-125ZM0,-125h125v-125h-125ZM125,-125h125v-125h-125ZM250,-125h125v-125h-125ZM375,-125h125v-125h-125ZM500,-125h125v-125h-125Z"></glyph>
    <glyph glyph-name="uni0113" unicode="ē" horiz-adv-x="750" d="M0,625h125v-125h-125ZM125,625h125v-125h-125ZM250,625h125v-125h-125ZM375,625h125v-125h-125ZM500,625h125v-125h-125ZM125,375h125v-125h-125ZM250,375h125v-125h-125ZM375,375h125v-125h-125ZM0,250h125v-125h-125ZM500,250h125v-125h-125ZM0,125h125v-125h-125ZM125,125h125v-125h-125ZM250,125h125v-125h-125ZM375,125h125v-125h-125ZM500,125h125v-125h-125ZM0,0h125v-125h-125ZM125,-125h125v-125h-125ZM250,-125h125v-125h-125ZM375,-125h125v-125h-125ZM500,-125h125v-125h-125Z"></glyph>
    <glyph glyph-name="uni0116" unicode="Ė" horiz-adv-x="750" d="M250,625h125v-125h-125ZM0,500h125v-125h-125ZM125,500h125v-125h-125ZM250,500h125v-125h-125ZM375,500h125v-125h-125ZM500,500h125v-125h-125ZM0,375h125v-125h-125ZM0,250h125v-125h-125ZM125,250h125v-125h-125ZM250,250h125v-125h-125ZM375,250h125v-125h-125ZM0,125h125v-125h-125ZM0,0h125v-125h-125ZM0,-125h125v-125h-125ZM125,-125h125v-125h-125ZM250,-125h125v-125h-125ZM375,-125h125v-125h-125ZM500,-125h125v-125h-125Z"></glyph>
    <glyph glyph-name="uni0117" unicode="ė" horiz-adv-x="750" d="M250,625h125v-125h-125ZM125,375h125v-125h-125ZM250,375h125v-125h-125ZM375,375h125v-125h-125ZM0,250h125v-125h-125ZM500,250h125v-125h-125ZM0,125h125v-125h-125ZM125,125h125v-125h-125ZM250,125h125v-125h-125ZM375,125h125v-125h-125ZM500,125h125v-125h-125ZM0,0h125v-125h-125ZM125,-125h125v-125h-125ZM250,-125h125v-125h-125ZM375,-125h125v-125h-125ZM500,-125h125v-125h-125Z"></glyph>
    <glyph glyph-name="uni0118" unicode="Ę" horiz-adv-x="750" d="M0,625h125v-125h-125ZM125,625h125v-125h-125ZM250,625h125v-125h-125ZM375,625h125v-125h-125ZM500,625h125v-125h-125ZM0,500h125v-125h-125ZM0,375h125v-125h-125ZM0,250h125v-125h-125ZM125,250h125v-125h-125ZM250,250h125v-125h-125ZM375,250h125v-125h-125ZM0,125h125v-125h-125ZM0,0h125v-125h-125ZM125,0h125v-125h-125ZM250,0h125v-125h-125ZM375,0h125v-125h-125ZM500,0h125v-125h-125ZM375,-125h125v-125h-125ZM500,-125h125v-125h-125Z"></glyph>
    <glyph glyph-name="uni0119" unicode="ę" horiz-adv-x="750" d="M125,375h125v-125h-125ZM250,375h125v-125h-125ZM375,375h125v-125h-125ZM0,250h125v-125h-125ZM500,250h125v-125h-125ZM0,125h125v-125h-125ZM125,125h125v-125h-125ZM250,125h125v-125h-125ZM375,125h125v-125h-125ZM500,125h125v-125h-125ZM0,0h125v-125h-125ZM125,-125h125v-125h-125ZM250,-125h125v-125h-125ZM375,-125h125v-125h-125ZM500,-125h125v-125h-125Z"></glyph>
    <glyph glyph-name="uni011A" unicode="Ě" horiz-adv-x="750" d="M125,625h125v-125h-125ZM375,625h125v-125h-125ZM250,500h125v-125h-125ZM0,375h125v-125h-125ZM125,375h125v-125h-125ZM250,375h125v-125h-125ZM375,375h125v-125h-125ZM500,375h125v-125h-125ZM0,250h125v-125h-125ZM0,125h125v-125h-125ZM125,125h125v-125h-125ZM250,125h125v-125h-125ZM375,125h125v-125h-125ZM0,0h125v-125h-125ZM0,-125h125v-125h-125ZM125,-125h125v-125h-125ZM250,-125h125v-125h-125ZM375,-125h125v-125h-125ZM500,-125h125v-125h-125Z"></glyph>
    <glyph glyph-name="uni011B" unicode="ě" horiz-adv-x="750" d="M125,625h125v-125h-125ZM375,625h125v-125h-125ZM250,500h125v-125h-125ZM125,375h125v-125h-125ZM250,375h125v-125h-125ZM375,375h125v-125h-125ZM0,250h125v-125h-125ZM500,250h125v-125h-125ZM0,125h125v-125h-125ZM125,125h125v-125h-125ZM250,125h125v-125h-125ZM375,125h125v-125h-125ZM500,125h125v-125h-125ZM0,0h125v-125h-125ZM125,-125h125v-125h-125ZM250,-125h125v-125h-125ZM375,-125h125v-125h-125ZM500,-125h125v-125h-125Z"></glyph>
    <glyph glyph-name="uni011E" unicode="Ğ" horiz-adv-x="750" d="M0,625h125v-125h-125ZM500,625h125v-125h-125ZM125,500h125v-125h-125ZM250,500h125v-125h-125ZM375,500h125v-125h-125ZM125,375h125v-125h-125ZM250,375h125v-125h-125ZM375,375h125v-125h-125ZM500,375h125v-125h-125ZM0,250h125v-125h-125ZM0,125h125v-125h-125ZM375,125h125v-125h-125ZM500,125h125v-125h-125ZM0,0h125v-125h-125ZM500,0h125v-125h-125ZM125,-125h125v-125h-125ZM250,-125h125v-125h-125ZM375,-125h125v-125h-125Z"></glyph>
    <glyph glyph-name="uni011F" unicode="ğ" horiz-adv-x="750" d="M0,625h125v-125h-125ZM500,625h125v-125h-125ZM125,500h125v-125h-125ZM250,500h125v-125h-125ZM375,500h125v-125h-125ZM125,375h125v-125h-125ZM250,375h125v-125h-125ZM375,375h125v-125h-125ZM500,375h125v-125h-125ZM0,250h125v-125h-125ZM500,250h125v-125h-125ZM125,125h125v-125h-125ZM250,125h125v-125h-125ZM375,125h125v-125h-125ZM500,125h125v-125h-125ZM500,0h125v-125h-125ZM125,-125h125v-125h-125ZM250,-125h125v-125h-125ZM375,-125h125v-125h-125Z"></glyph>
    <glyph glyph-name="uni0120" unicode="Ġ" horiz-adv-x="750" d="M250,625h125v-125h-125ZM125,500h125v-125h-125ZM250,500h125v-125h-125ZM375,500h125v-125h-125ZM500,500h125v-125h-125ZM0,375h125v-125h-125ZM0,250h125v-125h-125ZM375,250h125v-125h-125ZM500,250h125v-125h-125ZM0,125h125v-125h-125ZM500,125h125v-125h-125ZM0,0h125v-125h-125ZM500,0h125v-125h-125ZM125,-125h125v-125h-125ZM250,-125h125v-125h-125ZM375,-125h125v-125h-125Z"></glyph>
    <glyph glyph-name="uni0121" unicode="ġ" horiz-adv-x="750" d="M250,625h125v-125h-125ZM125,375h125v-125h-125ZM250,375h125v-125h-125ZM375,375h125v-125h-125ZM500,375h125v-125h-125ZM0,250h125v-125h-125ZM500,250h125v-125h-125ZM125,125h125v-125h-125ZM250,125h125v-125h-125ZM375,125h125v-125h-125ZM500,125h125v-125h-125ZM500,0h125v-125h-125ZM125,-125h125v-125h-125ZM250,-125h125v-125h-125ZM375,-125h125v-125h-125Z"></glyph>
    <glyph glyph-name="uni0122" unicode="Ģ" horiz-adv-x="750" d="M125,625h125v-125h-125ZM250,625h125v-125h-125ZM375,625h125v-125h-125ZM500,625h125v-125h-125ZM0,500h125v-125h-125ZM0,375h125v-125h-125ZM0,250h125v-125h-125ZM375,250h125v-125h-125ZM500,250h125v-125h-125ZM0,125h125v-125h-125ZM500,125h125v-125h-125ZM125,0h125v-125h-125ZM250,0h125v-125h-125ZM375,0h125v-125h-125ZM250,-125h125v-125h-125Z"></glyph>
    <glyph glyph-name="uni0123" unicode="ģ" horiz-adv-x="750" d="M250,625h125v-125h-125ZM125,500h125v-125h-125ZM125,375h125v-125h-125ZM250,375h125v-125h-125ZM375,375h125v-125h-125ZM500,375h125v-125h-125ZM0,250h125v-125h-125ZM500,250h125v-125h-125ZM125,125h125v-125h-125ZM250,125h125v-125h-125ZM375,125h125v-125h-125ZM500,125h125v-125h-125ZM500,0h125v-125h-125ZM125,-125h125v-125h-125ZM250,-125h125v-125h-125ZM375,-125h125v-125h-125Z"></glyph>
    <glyph glyph-name="uni0126" unicode="Ħ" horiz-adv-x="750" d="M0,625h125v-125h-125ZM250,625h125v-125h-125ZM500,625h125v-125h-125ZM0,500h125v-125h-125ZM125,500h125v-125h-125ZM250,500h125v-125h-125ZM375,500h125v-125h-125ZM500,500h125v-125h-125ZM0,375h125v-125h-125ZM500,375h125v-125h-125ZM0,250h125v-125h-125ZM125,250h125v-125h-125ZM250,250h125v-125h-125ZM375,250h125v-125h-125ZM500,250h125v-125h-125ZM0,125h125v-125h-125ZM500,125h125v-125h-125ZM0,0h125v-125h-125ZM500,0h125v-125h-125ZM0,-125h125v-125h-125ZM500,-125h125v-125h-125Z"></glyph>
    <glyph glyph-name="uni0127" unicode="ħ" horiz-adv-x="750" d="M0,625h125v-125h-125ZM125,625h125v-125h-125ZM0,500h125v-125h-125ZM125,500h125v-125h-125ZM250,500h125v-125h-125ZM375,500h125v-125h-125ZM500,500h125v-125h-125ZM0,375h125v-125h-125ZM125,375h125v-125h-125ZM250,375h125v-125h-125ZM375,375h125v-125h-125ZM0,250h125v-125h-125ZM500,250h125v-125h-125ZM0,125h125v-125h-125ZM500,125h125v-125h-125ZM0,0h125v-125h-125ZM500,0h125v-125h-125ZM0,-125h125v-125h-125ZM500,-125h125v-125h-125Z"></glyph>
    <glyph glyph-name="uni012A" unicode="Ī" horiz-adv-x="750" d="M0,625h125v-125h-125ZM125,625h125v-125h-125ZM250,625h125v-125h-125ZM375,625h125v-125h-125ZM500,625h125v-125h-125ZM0,500h125v-125h-125ZM125,500h125v-125h-125ZM250,500h125v-125h-125ZM375,500h125v-125h-125ZM500,500h125v-125h-125ZM250,375h125v-125h-125ZM250,250h125v-125h-125ZM250,125h125v-125h-125ZM250,0h125v-125h-125ZM0,-125h125v-125h-125ZM125,-125h125v-125h-125ZM250,-125h125v-125h-125ZM375,-125h125v-125h-125ZM500,-125h125v-125h-125Z"></glyph>
    <glyph glyph-name="uni012B" unicode="ī" horiz-adv-x="750" d="M0,625h125v-125h-125ZM125,625h125v-125h-125ZM250,625h125v-125h-125ZM375,625h125v-125h-125ZM500,625h125v-125h-125ZM250,375h125v-125h-125ZM250,250h125v-125h-125ZM250,125h125v-125h-125ZM250,0h125v-125h-125ZM125,-125h125v-125h-125ZM250,-125h125v-125h-125ZM375,-125h125v-125h-125Z"></glyph>
    <glyph glyph-name="uni012E" unicode="Į" horiz-adv-x="750" d="M0,625h125v-125h-125ZM125,625h125v-125h-125ZM250,625h125v-125h-125ZM375,625h125v-125h-125ZM500,625h125v-125h-125ZM250,500h125v-125h-125ZM250,375h125v-125h-125ZM250,250h125v-125h-125ZM250,125h125v-125h-125ZM0,0h125v-125h-125ZM125,0h125v-125h-125ZM250,0h125v-125h-125ZM375,0h125v-125h-125ZM500,0h125v-125h-125ZM250,-125h125v-125h-125ZM375,-125h125v-125h-125Z"></glyph>
    <glyph glyph-name="uni012F" unicode="į" horiz-adv-x="750" d="M250,625h125v-125h-125ZM125,375h125v-125h-125ZM250,375h125v-125h-125ZM250,250h125v-125h-125ZM250,125h125v-125h-125ZM125,0h125v-125h-125ZM250,0h125v-125h-125ZM375,0h125v-125h-125ZM250,-125h125v-125h-125ZM375,-125h125v-125h-125Z"></glyph>
    <glyph glyph-name="uni0130" unicode="İ" horiz-adv-x="750" d="M250,625h125v-125h-125ZM0,500h125v-125h-125ZM125,500h125v-125h-125ZM250,500h125v-125h-125ZM375,500h125v-125h-125ZM500,500h125v-125h-125ZM250,375h125v-125h-125ZM250,250h125v-125h-125ZM250,125h125v-125h-125ZM250,0h125v-125h-125ZM0,-125h125v-125h-125ZM125,-125h125v-125h-125ZM250,-125h125v-125h-125ZM375,-125h125v-125h-125ZM500,-125h125v-125h-125Z"></glyph>
    <glyph glyph-name="uni0131" unicode="ı" horiz-adv-x="750" d="M125,375h125v-125h-125ZM250,375h125v-125h-125ZM250,250h125v-125h-125ZM250,125h125v-125h-125ZM250,0h125v-125h-125ZM125,-125h125v-125h-125ZM250,-125h125v-125h-125ZM375,-125h125v-125h-125Z"></glyph>
    <glyph glyph-name="uni0136" unicode="Ķ" horiz-adv-x="750" d="M0,625h125v-125h-125ZM500,625h125v-125h-125ZM0,500h125v-125h-125ZM375,500h125v-125h-125ZM0,375h125v-125h-125ZM250,375h125v-125h-125ZM0,250h125v-125h-125ZM125,250h125v-125h-125ZM0,125h125v-125h-125ZM250,125h125v-125h-125ZM0,0h125v-125h-125ZM375,0h125v-125h-125ZM0,-125h125v-125h-125ZM250,-125h125v-125h-125ZM375,-125h125v-125h-125ZM500,-125h125v-125h-125Z"></glyph>
    <glyph glyph-name="uni0137" unicode="ķ" horiz-adv-x="750" d="M0,625h125v-125h-125ZM0,500h125v-125h-125ZM0,375h125v-125h-125ZM375,375h125v-125h-125ZM0,250h125v-125h-125ZM250,250h125v-125h-125ZM0,125h125v-125h-125ZM125,125h125v-125h-125ZM0,0h125v-125h-125ZM250,0h125v-125h-125ZM0,-125h125v-125h-125ZM250,-125h125v-125h-125ZM375,-125h125v-125h-125ZM500,-125h125v-125h-125Z"></glyph>
    <glyph glyph-name="uni0139" unicode="Ĺ" horiz-adv-x="750" d="M375,625h125v-125h-125ZM0,500h125v-125h-125ZM0,375h125v-125h-125ZM0,250h125v-125h-125ZM0,125h125v-125h-125ZM0,0h125v-125h-125ZM0,-125h125v-125h-125ZM125,-125h125v-125h-125ZM250,-125h125v-125h-125ZM375,-125h125v-125h-125ZM500,-125h125v-125h-125Z"></glyph>
    <glyph glyph-name="uni013A" unicode="ĺ" horiz-adv-x="750" d="M375,625h125v-125h-125ZM125,500h125v-125h-125ZM250,500h125v-125h-125ZM250,375h125v-125h-125ZM250,250h125v-125h-125ZM250,125h125v-125h-125ZM250,0h125v-125h-125ZM125,-125h125v-125h-125ZM250,-125h125v-125h-125ZM375,-125h125v-125h-125Z"></glyph>
    <glyph glyph-name="uni013B" unicode="Ļ" horiz-adv-x="750" d="M0,625h125v-125h-125ZM0,500h125v-125h-125ZM0,375h125v-125h-125ZM0,250h125v-125h-125ZM0,125h125v-125h-125ZM0,0h125v-125h-125ZM125,0h125v-125h-125ZM250,0h125v-125h-125ZM375,0h125v-125h-125ZM500,0h125v-125h-125ZM250,-125h125v-125h-125ZM375,-125h125v-125h-125Z"></glyph>
    <glyph glyph-name="uni013C" unicode="ļ" horiz-adv-x="750" d="M125,625h125v-125h-125ZM250,625h125v-125h-125ZM250,500h125v-125h-125ZM250,375h125v-125h-125ZM250,250h125v-125h-125ZM250,125h125v-125h-125ZM125,0h125v-125h-125ZM250,0h125v-125h-125ZM375,0h125v-125h-125ZM250,-125h125v-125h-125ZM375,-125h125v-125h-125Z"></glyph>
    <glyph glyph-name="uni013D" unicode="Ľ" horiz-adv-x="750" d="M0,625h125v-125h-125ZM250,625h125v-125h-125ZM0,500h125v-125h-125ZM0,375h125v-125h-125ZM0,250h125v-125h-125ZM0,125h125v-125h-125ZM0,0h125v-125h-125ZM0,-125h125v-125h-125ZM125,-125h125v-125h-125ZM250,-125h125v-125h-125ZM375,-125h125v-125h-125ZM500,-125h125v-125h-125Z"></glyph>
    <glyph glyph-name="uni013E" unicode="ľ" horiz-adv-x="750" d="M125,625h125v-125h-125ZM250,625h125v-125h-125ZM375,625h125v-125h-125ZM250,500h125v-125h-125ZM500,500h125v-125h-125ZM250,375h125v-125h-125ZM250,250h125v-125h-125ZM250,125h125v-125h-125ZM250,0h125v-125h-125ZM125,-125h125v-125h-125ZM250,-125h125v-125h-125ZM375,-125h125v-125h-125Z"></glyph>
    <glyph glyph-name="uni0141" unicode="Ł" horiz-adv-x="750" d="M0,625h125v-125h-125ZM0,500h125v-125h-125ZM0,375h125v-125h-125ZM125,375h125v-125h-125ZM0,250h125v-125h-125ZM250,250h125v-125h-125ZM0,125h125v-125h-125ZM125,125h125v-125h-125ZM0,0h125v-125h-125ZM0,-125h125v-125h-125ZM125,-125h125v-125h-125ZM250,-125h125v-125h-125ZM375,-125h125v-125h-125ZM500,-125h125v-125h-125Z"></glyph>
    <glyph glyph-name="uni0142" unicode="ł" horiz-adv-x="750" d="M125,625h125v-125h-125ZM250,625h125v-125h-125ZM250,500h125v-125h-125ZM125,375h125v-125h-125ZM250,375h125v-125h-125ZM0,250h125v-125h-125ZM125,250h125v-125h-125ZM125,125h125v-125h-125ZM250,125h125v-125h-125ZM250,0h125v-125h-125ZM125,-125h125v-125h-125ZM250,-125h125v-125h-125ZM375,-125h125v-125h-125Z"></glyph>
    <glyph glyph-name="uni0143" unicode="Ń" horiz-adv-x="750" d="M375,625h125v-125h-125ZM0,500h125v-125h-125ZM500,500h125v-125h-125ZM0,375h125v-125h-125ZM125,375h125v-125h-125ZM500,375h125v-125h-125ZM0,250h125v-125h-125ZM250,250h125v-125h-125ZM500,250h125v-125h-125ZM0,125h125v-125h-125ZM375,125h125v-125h-125ZM500,125h125v-125h-125ZM0,0h125v-125h-125ZM500,0h125v-125h-125ZM0,-125h125v-125h-125ZM500,-125h125v-125h-125Z"></glyph>
    <glyph glyph-name="uni0144" unicode="ń" horiz-adv-x="750" d="M375,625h125v-125h-125ZM125,375h125v-125h-125ZM250,375h125v-125h-125ZM375,375h125v-125h-125ZM0,250h125v-125h-125ZM500,250h125v-125h-125ZM0,125h125v-125h-125ZM500,125h125v-125h-125ZM0,0h125v-125h-125ZM500,0h125v-125h-125ZM0,-125h125v-125h-125ZM500,-125h125v-125h-125Z"></glyph>
    <glyph glyph-name="uni0145" unicode="Ņ" horiz-adv-x="750" d="M0,625h125v-125h-125ZM500,625h125v-125h-125ZM0,500h125v-125h-125ZM125,500h125v-125h-125ZM500,500h125v-125h-125ZM0,375h125v-125h-125ZM250,375h125v-125h-125ZM500,375h125v-125h-125ZM0,250h125v-125h-125ZM375,250h125v-125h-125ZM500,250h125v-125h-125ZM0,125h125v-125h-125ZM500,125h125v-125h-125ZM0,0h125v-125h-125ZM500,0h125v-125h-125ZM250,-125h125v-125h-125ZM375,-125h125v-125h-125Z"></glyph>
    <glyph glyph-name="uni0146" unicode="ņ" horiz-adv-x="750" d="M125,500h125v-125h-125ZM250,500h125v-125h-125ZM375,500h125v-125h-125ZM0,375h125v-125h-125ZM500,375h125v-125h-125ZM0,250h125v-125h-125ZM500,250h125v-125h-125ZM0,125h125v-125h-125ZM500,125h125v-125h-125ZM0,0h125v-125h-125ZM500,0h125v-125h-125ZM250,-125h125v-125h-125ZM375,-125h125v-125h-125Z"></glyph>
    <glyph glyph-name="uni0147" unicode="Ň" horiz-adv-x="750" d="M125,625h125v-125h-125ZM375,625h125v-125h-125ZM250,500h125v-125h-125ZM0,375h125v-125h-125ZM500,375h125v-125h-125ZM0,250h125v-125h-125ZM125,250h125v-125h-125ZM500,250h125v-125h-125ZM0,125h125v-125h-125ZM250,125h125v-125h-125ZM500,125h125v-125h-125ZM0,0h125v-125h-125ZM375,0h125v-125h-125ZM500,0h125v-125h-125ZM0,-125h125v-125h-125ZM500,-125h125v-125h-125Z"></glyph>
    <glyph glyph-name="uni0148" unicode="ň" horiz-adv-x="750" d="M125,625h125v-125h-125ZM375,625h125v-125h-125ZM250,500h125v-125h-125ZM125,375h125v-125h-125ZM250,375h125v-125h-125ZM375,375h125v-125h-125ZM0,250h125v-125h-125ZM500,250h125v-125h-125ZM0,125h125v-125h-125ZM500,125h125v-125h-125ZM0,0h125v-125h-125ZM500,0h125v-125h-125ZM0,-125h125v-125h-125ZM500,-125h125v-125h-125Z"></glyph>
    <glyph glyph-name="uni0150" unicode="Ő" horiz-adv-x="750" d="M125,625h125v-125h-125ZM375,625h125v-125h-125ZM0,500h125v-125h-125ZM250,500h125v-125h-125ZM125,375h125v-125h-125ZM250,375h125v-125h-125ZM375,375h125v-125h-125ZM0,250h125v-125h-125ZM500,250h125v-125h-125ZM0,125h125v-125h-125ZM500,125h125v-125h-125ZM0,0h125v-125h-125ZM500,0h125v-125h-125ZM125,-125h125v-125h-125ZM250,-125h125v-125h-125ZM375,-125h125v-125h-125Z"></glyph>
    <glyph glyph-name="uni0151" unicode="ő" horiz-adv-x="750" d="M125,625h125v-125h-125ZM375,625h125v-125h-125ZM0,500h125v-125h-125ZM250,500h125v-125h-125ZM125,375h125v-125h-125ZM250,375h125v-125h-125ZM375,375h125v-125h-125ZM0,250h125v-125h-125ZM500,250h125v-125h-125ZM0,125h125v-125h-125ZM500,125h125v-125h-125ZM0,0h125v-125h-125ZM500,0h125v-125h-125ZM125,-125h125v-125h-125ZM250,-125h125v-125h-125ZM375,-125h125v-125h-125Z"></glyph>
    <glyph glyph-name="uni0152" unicode="Œ" horiz-adv-x="750" d="M125,625h125v-125h-125ZM250,625h125v-125h-125ZM375,625h125v-125h-125ZM500,625h125v-125h-125ZM0,500h125v-125h-125ZM250,500h125v-125h-125ZM0,375h125v-125h-125ZM250,375h125v-125h-125ZM0,250h125v-125h-125ZM250,250h125v-125h-125ZM375,250h125v-125h-125ZM500,250h125v-125h-125ZM0,125h125v-125h-125ZM250,125h125v-125h-125ZM0,0h125v-125h-125ZM250,0h125v-125h-125ZM125,-125h125v-125h-125ZM250,-125h125v-125h-125ZM375,-125h125v-125h-125ZM500,-125h125v-125h-125Z"></glyph>
    <glyph glyph-name="uni0153" unicode="œ" horiz-adv-x="750" d="M125,375h125v-125h-125ZM375,375h125v-125h-125ZM0,250h125v-125h-125ZM250,250h125v-125h-125ZM500,250h125v-125h-125ZM0,125h125v-125h-125ZM250,125h125v-125h-125ZM375,125h125v-125h-125ZM500,125h125v-125h-125ZM0,0h125v-125h-125ZM250,0h125v-125h-125ZM125,-125h125v-125h-125ZM375,-125h125v-125h-125ZM500,-125h125v-125h-125Z"></glyph>
    <glyph glyph-name="uni0154" unicode="Ŕ" horiz-adv-x="750" d="M375,625h125v-125h-125ZM0,500h125v-125h-125ZM125,500h125v-125h-125ZM250,500h125v-125h-125ZM375,500h125v-125h-125ZM0,375h125v-125h-125ZM500,375h125v-125h-125ZM0,250h125v-125h-125ZM125,250h125v-125h-125ZM250,250h125v-125h-125ZM375,250h125v-125h-125ZM0,125h125v-125h-125ZM250,125h125v-125h-125ZM0,0h125v-125h-125ZM375,0h125v-125h-125ZM0,-125h125v-125h-125ZM500,-125h125v-125h-125Z"></glyph>
    <glyph glyph-name="uni0155" unicode="ŕ" horiz-adv-x="750" d="M375,625h125v-125h-125ZM0,375h125v-125h-125ZM250,375h125v-125h-125ZM375,375h125v-125h-125ZM500,375h125v-125h-125ZM0,250h125v-125h-125ZM125,250h125v-125h-125ZM0,125h125v-125h-125ZM0,0h125v-125h-125ZM0,-125h125v-125h-125Z"></glyph>
    <glyph glyph-name="uni0158" unicode="Ř" horiz-adv-x="750" d="M125,625h125v-125h-125ZM375,625h125v-125h-125ZM250,500h125v-125h-125ZM0,375h125v-125h-125ZM125,375h125v-125h-125ZM250,375h125v-125h-125ZM375,375h125v-125h-125ZM0,250h125v-125h-125ZM500,250h125v-125h-125ZM0,125h125v-125h-125ZM125,125h125v-125h-125ZM250,125h125v-125h-125ZM375,125h125v-125h-125ZM0,0h125v-125h-125ZM375,0h125v-125h-125ZM0,-125h125v-125h-125ZM500,-125h125v-125h-125Z"></glyph>
    <glyph glyph-name="uni0159" unicode="ř" horiz-adv-x="750" d="M125,625h125v-125h-125ZM375,625h125v-125h-125ZM250,500h125v-125h-125ZM0,375h125v-125h-125ZM250,375h125v-125h-125ZM375,375h125v-125h-125ZM500,375h125v-125h-125ZM0,250h125v-125h-125ZM125,250h125v-125h-125ZM0,125h125v-125h-125ZM0,0h125v-125h-125ZM0,-125h125v-125h-125Z"></glyph>
    <glyph glyph-name="uni015A" unicode="Ś" horiz-adv-x="750" d="M375,625h125v-125h-125ZM125,500h125v-125h-125ZM250,500h125v-125h-125ZM375,500h125v-125h-125ZM500,500h125v-125h-125ZM0,375h125v-125h-125ZM125,250h125v-125h-125ZM250,250h125v-125h-125ZM375,250h125v-125h-125ZM500,125h125v-125h-125ZM500,0h125v-125h-125ZM0,-125h125v-125h-125ZM125,-125h125v-125h-125ZM250,-125h125v-125h-125ZM375,-125h125v-125h-125Z"></glyph>
    <glyph glyph-name="uni015B" unicode="ś" horiz-adv-x="750" d="M375,625h125v-125h-125ZM125,375h125v-125h-125ZM250,375h125v-125h-125ZM375,375h125v-125h-125ZM500,375h125v-125h-125ZM0,250h125v-125h-125ZM125,125h125v-125h-125ZM250,125h125v-125h-125ZM375,125h125v-125h-125ZM500,0h125v-125h-125ZM0,-125h125v-125h-125ZM125,-125h125v-125h-125ZM250,-125h125v-125h-125ZM375,-125h125v-125h-125Z"></glyph>
    <glyph glyph-name="uni015E" unicode="Ş" horiz-adv-x="750" d="M125,625h125v-125h-125ZM250,625h125v-125h-125ZM375,625h125v-125h-125ZM500,625h125v-125h-125ZM0,500h125v-125h-125ZM125,375h125v-125h-125ZM250,375h125v-125h-125ZM375,375h125v-125h-125ZM500,250h125v-125h-125ZM500,125h125v-125h-125ZM0,0h125v-125h-125ZM125,0h125v-125h-125ZM250,0h125v-125h-125ZM375,0h125v-125h-125ZM250,-125h125v-125h-125ZM375,-125h125v-125h-125Z"></glyph>
    <glyph glyph-name="uni015F" unicode="ş" horiz-adv-x="750" d="M125,500h125v-125h-125ZM250,500h125v-125h-125ZM375,500h125v-125h-125ZM500,500h125v-125h-125ZM0,375h125v-125h-125ZM125,250h125v-125h-125ZM250,250h125v-125h-125ZM375,250h125v-125h-125ZM500,125h125v-125h-125ZM0,0h125v-125h-125ZM125,0h125v-125h-125ZM250,0h125v-125h-125ZM375,0h125v-125h-125ZM250,-125h125v-125h-125ZM375,-125h125v-125h-125Z"></glyph>
    <glyph glyph-name="uni0160" unicode="Š" horiz-adv-x="750" d="M125,625h125v-125h-125ZM375,625h125v-125h-125ZM125,500h125v-125h-125ZM250,500h125v-125h-125ZM375,500h125v-125h-125ZM500,500h125v-125h-125ZM0,375h125v-125h-125ZM125,250h125v-125h-125ZM250,250h125v-125h-125ZM375,250h125v-125h-125ZM500,125h125v-125h-125ZM500,0h125v-125h-125ZM0,-125h125v-125h-125ZM125,-125h125v-125h-125ZM250,-125h125v-125h-125ZM375,-125h125v-125h-125Z"></glyph>
    <glyph glyph-name="uni0161" unicode="š" horiz-adv-x="750" d="M125,625h125v-125h-125ZM375,625h125v-125h-125ZM250,500h125v-125h-125ZM125,375h125v-125h-125ZM250,375h125v-125h-125ZM375,375h125v-125h-125ZM500,375h125v-125h-125ZM0,250h125v-125h-125ZM125,125h125v-125h-125ZM250,125h125v-125h-125ZM375,125h125v-125h-125ZM500,0h125v-125h-125ZM0,-125h125v-125h-125ZM125,-125h125v-125h-125ZM250,-125h125v-125h-125ZM375,-125h125v-125h-125Z"></glyph>
    <glyph glyph-name="uni0164" unicode="Ť" horiz-adv-x="750" d="M125,625h125v-125h-125ZM375,625h125v-125h-125ZM0,500h125v-125h-125ZM125,500h125v-125h-125ZM250,500h125v-125h-125ZM375,500h125v-125h-125ZM500,500h125v-125h-125ZM250,375h125v-125h-125ZM250,250h125v-125h-125ZM250,125h125v-125h-125ZM250,0h125v-125h-125ZM250,-125h125v-125h-125Z"></glyph>
    <glyph glyph-name="uni0165" unicode="ť" horiz-adv-x="750" d="M125,625h125v-125h-125ZM250,625h125v-125h-125ZM500,625h125v-125h-125ZM125,500h125v-125h-125ZM375,500h125v-125h-125ZM0,375h125v-125h-125ZM125,375h125v-125h-125ZM250,375h125v-125h-125ZM375,375h125v-125h-125ZM125,250h125v-125h-125ZM125,125h125v-125h-125ZM125,0h125v-125h-125ZM500,0h125v-125h-125ZM250,-125h125v-125h-125ZM375,-125h125v-125h-125Z"></glyph>
    <glyph glyph-name="uni016A" unicode="Ū" horiz-adv-x="750" d="M0,625h125v-125h-125ZM125,625h125v-125h-125ZM250,625h125v-125h-125ZM375,625h125v-125h-125ZM500,625h125v-125h-125ZM0,500h125v-125h-125ZM500,500h125v-125h-125ZM0,375h125v-125h-125ZM500,375h125v-125h-125ZM0,250h125v-125h-125ZM500,250h125v-125h-125ZM0,125h125v-125h-125ZM500,125h125v-125h-125ZM0,0h125v-125h-125ZM500,0h125v-125h-125ZM125,-125h125v-125h-125ZM250,-125h125v-125h-125ZM375,-125h125v-125h-125Z"></glyph>
    <glyph glyph-name="uni016B" unicode="ū" horiz-adv-x="750" d="M0,625h125v-125h-125ZM125,625h125v-125h-125ZM250,625h125v-125h-125ZM375,625h125v-125h-125ZM500,625h125v-125h-125ZM0,375h125v-125h-125ZM500,375h125v-125h-125ZM0,250h125v-125h-125ZM500,250h125v-125h-125ZM0,125h125v-125h-125ZM500,125h125v-125h-125ZM0,0h125v-125h-125ZM500,0h125v-125h-125ZM125,-125h125v-125h-125ZM250,-125h125v-125h-125ZM375,-125h125v-125h-125Z"></glyph>
    <glyph glyph-name="uni016E" unicode="Ů" horiz-adv-x="750" d="M250,625h125v-125h-125ZM125,500h125v-125h-125ZM375,500h125v-125h-125ZM0,375h125v-125h-125ZM500,375h125v-125h-125ZM0,250h125v-125h-125ZM500,250h125v-125h-125ZM0,125h125v-125h-125ZM500,125h125v-125h-125ZM0,0h125v-125h-125ZM500,0h125v-125h-125ZM125,-125h125v-125h-125ZM250,-125h125v-125h-125ZM375,-125h125v-125h-125Z"></glyph>
    <glyph glyph-name="uni016F" unicode="ů" horiz-adv-x="750" d="M250,625h125v-125h-125ZM125,500h125v-125h-125ZM375,500h125v-125h-125ZM0,375h125v-125h-125ZM500,375h125v-125h-125ZM0,250h125v-125h-125ZM500,250h125v-125h-125ZM0,125h125v-125h-125ZM500,125h125v-125h-125ZM0,0h125v-125h-125ZM500,0h125v-125h-125ZM125,-125h125v-125h-125ZM250,-125h125v-125h-125ZM375,-125h125v-125h-125Z"></glyph>
    <glyph glyph-name="uni0170" unicode="Ű" horiz-adv-x="750" d="M125,625h125v-125h-125ZM375,625h125v-125h-125ZM0,500h125v-125h-125ZM250,500h125v-125h-125ZM0,375h125v-125h-125ZM500,375h125v-125h-125ZM0,250h125v-125h-125ZM500,250h125v-125h-125ZM0,125h125v-125h-125ZM500,125h125v-125h-125ZM0,0h125v-125h-125ZM500,0h125v-125h-125ZM125,-125h125v-125h-125ZM250,-125h125v-125h-125ZM375,-125h125v-125h-125Z"></glyph>
    <glyph glyph-name="uni0171" unicode="ű" horiz-adv-x="750" d="M125,625h125v-125h-125ZM375,625h125v-125h-125ZM0,500h125v-125h-125ZM250,500h125v-125h-125ZM0,375h125v-125h-125ZM500,375h125v-125h-125ZM0,250h125v-125h-125ZM500,250h125v-125h-125ZM0,125h125v-125h-125ZM500,125h125v-125h-125ZM0,0h125v-125h-125ZM500,0h125v-125h-125ZM125,-125h125v-125h-125ZM250,-125h125v-125h-125ZM375,-125h125v-125h-125Z"></glyph>
    <glyph glyph-name="uni0172" unicode="Ų" horiz-adv-x="750" d="M0,625h125v-125h-125ZM500,625h125v-125h-125ZM0,500h125v-125h-125ZM500,500h125v-125h-125ZM0,375h125v-125h-125ZM500,375h125v-125h-125ZM0,250h125v-125h-125ZM500,250h125v-125h-125ZM0,125h125v-125h-125ZM500,125h125v-125h-125ZM125,0h125v-125h-125ZM250,0h125v-125h-125ZM375,0h125v-125h-125ZM250,-125h125v-125h-125ZM375,-125h125v-125h-125Z"></glyph>
    <glyph glyph-name="uni0173" unicode="ų" horiz-adv-x="750" d="M0,500h125v-125h-125ZM500,500h125v-125h-125ZM0,375h125v-125h-125ZM500,375h125v-125h-125ZM0,250h125v-125h-125ZM500,250h125v-125h-125ZM0,125h125v-125h-125ZM500,125h125v-125h-125ZM125,0h125v-125h-125ZM250,0h125v-125h-125ZM375,0h125v-125h-125ZM250,-125h125v-125h-125ZM375,-125h125v-125h-125Z"></glyph>
    <glyph glyph-name="uni0174" unicode="Ŵ" horiz-adv-x="750" d="M250,625h125v-125h-125ZM125,500h125v-125h-125ZM375,500h125v-125h-125ZM0,375h125v-125h-125ZM500,375h125v-125h-125ZM0,250h125v-125h-125ZM250,250h125v-125h-125ZM500,250h125v-125h-125ZM0,125h125v-125h-125ZM250,125h125v-125h-125ZM500,125h125v-125h-125ZM0,0h125v-125h-125ZM250,0h125v-125h-125ZM500,0h125v-125h-125ZM125,-125h125v-125h-125ZM375,-125h125v-125h-125Z"></glyph>
    <glyph glyph-name="uni0175" unicode="ŵ" horiz-adv-x="750" d="M250,625h125v-125h-125ZM125,500h125v-125h-125ZM375,500h125v-125h-125ZM0,375h125v-125h-125ZM500,375h125v-125h-125ZM0,250h125v-125h-125ZM500,250h125v-125h-125ZM0,125h125v-125h-125ZM250,125h125v-125h-125ZM500,125h125v-125h-125ZM0,0h125v-125h-125ZM250,0h125v-125h-125ZM500,0h125v-125h-125ZM125,-125h125v-125h-125ZM375,-125h125v-125h-125Z"></glyph>
    <glyph glyph-name="uni0176" unicode="Ŷ" horiz-adv-x="750" d="M250,625h125v-125h-125ZM125,500h125v-125h-125ZM375,500h125v-125h-125ZM0,375h125v-125h-125ZM500,375h125v-125h-125ZM125,250h125v-125h-125ZM375,250h125v-125h-125ZM250,125h125v-125h-125ZM250,0h125v-125h-125ZM250,-125h125v-125h-125Z"></glyph>
    <glyph glyph-name="uni0177" unicode="ŷ" horiz-adv-x="750" d="M250,625h125v-125h-125ZM125,500h125v-125h-125ZM375,500h125v-125h-125ZM0,375h125v-125h-125ZM500,375h125v-125h-125ZM0,250h125v-125h-125ZM500,250h125v-125h-125ZM125,125h125v-125h-125ZM250,125h125v-125h-125ZM375,125h125v-125h-125ZM500,125h125v-125h-125ZM500,0h125v-125h-125ZM125,-125h125v-125h-125ZM250,-125h125v-125h-125ZM375,-125h125v-125h-125Z"></glyph>
    <glyph glyph-name="uni0178" unicode="Ÿ" horiz-adv-x="750" d="M125,625h125v-125h-125ZM375,625h125v-125h-125ZM0,500h125v-125h-125ZM500,500h125v-125h-125ZM125,375h125v-125h-125ZM375,375h125v-125h-125ZM250,250h125v-125h-125ZM250,125h125v-125h-125ZM250,0h125v-125h-125ZM250,-125h125v-125h-125Z"></glyph>
    <glyph glyph-name="uni0179" unicode="Ź" horiz-adv-x="750" d="M375,625h125v-125h-125ZM0,500h125v-125h-125ZM125,500h125v-125h-125ZM250,500h125v-125h-125ZM375,500h125v-125h-125ZM500,500h125v-125h-125ZM375,375h125v-125h-125ZM250,250h125v-125h-125ZM125,125h125v-125h-125ZM0,0h125v-125h-125ZM0,-125h125v-125h-125ZM125,-125h125v-125h-125ZM250,-125h125v-125h-125ZM375,-125h125v-125h-125ZM500,-125h125v-125h-125Z"></glyph>
    <glyph glyph-name="uni017A" unicode="ź" horiz-adv-x="750" d="M375,625h125v-125h-125ZM0,375h125v-125h-125ZM125,375h125v-125h-125ZM250,375h125v-125h-125ZM375,375h125v-125h-125ZM500,375h125v-125h-125ZM375,250h125v-125h-125ZM250,125h125v-125h-125ZM125,0h125v-125h-125ZM0,-125h125v-125h-125ZM125,-125h125v-125h-125ZM250,-125h125v-125h-125ZM375,-125h125v-125h-125ZM500,-125h125v-125h-125Z"></glyph>
    <glyph glyph-name="uni017B" unicode="Ż" horiz-adv-x="750" d="M250,625h125v-125h-125ZM0,500h125v-125h-125ZM125,500h125v-125h-125ZM250,500h125v-125h-125ZM375,500h125v-125h-125ZM500,500h125v-125h-125ZM375,375h125v-125h-125ZM250,250h125v-125h-125ZM125,125h125v-125h-125ZM0,0h125v-125h-125ZM0,-125h125v-125h-125ZM125,-125h125v-125h-125ZM250,-125h125v-125h-125ZM375,-125h125v-125h-125ZM500,-125h125v-125h-125Z"></glyph>
    <glyph glyph-name="uni017C" unicode="ż" horiz-adv-x="750" d="M250,625h125v-125h-125ZM0,375h125v-125h-125ZM125,375h125v-125h-125ZM250,375h125v-125h-125ZM375,375h125v-125h-125ZM500,375h125v-125h-125ZM375,250h125v-125h-125ZM250,125h125v-125h-125ZM125,0h125v-125h-125ZM0,-125h125v-125h-125ZM125,-125h125v-125h-125ZM250,-125h125v-125h-125ZM375,-125h125v-125h-125ZM500,-125h125v-125h-125Z"></glyph>
    <glyph glyph-name="uni017D" unicode="Ž" horiz-adv-x="750" d="M125,625h125v-125h-125ZM375,625h125v-125h-125ZM0,500h125v-125h-125ZM125,500h125v-125h-125ZM250,500h125v-125h-125ZM375,500h125v-125h-125ZM500,500h125v-125h-125ZM375,375h125v-125h-125ZM250,250h125v-125h-125ZM125,125h125v-125h-125ZM0,0h125v-125h-125ZM0,-125h125v-125h-125ZM125,-125h125v-125h-125ZM250,-125h125v-125h-125ZM375,-125h125v-125h-125ZM500,-125h125v-125h-125Z"></glyph>
    <glyph glyph-name="uni017E" unicode="ž" horiz-adv-x="750" d="M125,625h125v-125h-125ZM375,625h125v-125h-125ZM250,500h125v-125h-125ZM0,375h125v-125h-125ZM125,375h125v-125h-125ZM250,375h125v-125h-125ZM375,375h125v-125h-125ZM500,375h125v-125h-125ZM375,250h125v-125h-125ZM250,125h125v-125h-125ZM125,0h125v-125h-125ZM0,-125h125v-125h-125ZM125,-125h125v-125h-125ZM250,-125h125v-125h-125ZM375,-125h125v-125h-125ZM500,-125h125v-125h-125Z"></glyph>
    <glyph glyph-name="uni0218" unicode="Ș" horiz-adv-x="750" d="M125,625h125v-125h-125ZM250,625h125v-125h-125ZM375,625h125v-125h-125ZM500,625h125v-125h-125ZM0,500h125v-125h-125ZM0,375h125v-125h-125ZM125,250h125v-125h-125ZM250,250h125v-125h-125ZM375,250h125v-125h-125ZM500,125h125v-125h-125ZM0,0h125v-125h-125ZM125,0h125v-125h-125ZM250,0h125v-125h-125ZM375,0h125v-125h-125ZM250,-125h125v-125h-125ZM375,-125h125v-125h-125Z"></glyph>
    <glyph glyph-name="uni0219" unicode="ș" horiz-adv-x="750" d="M125,375h125v-125h-125ZM250,375h125v-125h-125ZM375,375h125v-125h-125ZM500,375h125v-125h-125ZM0,250h125v-125h-125ZM125,125h125v-125h-125ZM250,125h125v-125h-125ZM375,125h125v-125h-125ZM0,0h125v-125h-125ZM125,0h125v-125h-125ZM250,0h125v-125h-125ZM375,0h125v-125h-125ZM250,-125h125v-125h-125ZM375,-125h125v-125h-125Z"></glyph>
    <glyph glyph-name="uni021A" unicode="Ț" horiz-adv-x="750" d="M0,625h125v-125h-125ZM125,625h125v-125h-125ZM250,625h125v-125h-125ZM375,625h125v-125h-125ZM500,625h125v-125h-125ZM250,500h125v-125h-125ZM250,375h125v-125h-125ZM250,250h125v-125h-125ZM250,125h125v-125h-125ZM250,0h125v-125h-125ZM250,-125h125v-125h-125ZM375,-125h125v-125h-125Z"></glyph>
    <glyph glyph-name="uni021B" unicode="ț" horiz-adv-x="750" d="M125,625h125v-125h-125ZM125,500h125v-125h-125ZM0,375h125v-125h-125ZM125,375h125v-125h-125ZM250,375h125v-125h-125ZM375,375h125v-125h-125ZM125,250h125v-125h-125ZM125,125h125v-125h-125ZM125,0h125v-125h-125ZM500,0h125v-125h-125ZM250,-125h125v-125h-125ZM375,-125h125v-125h-125Z"></glyph>
    <glyph glyph-name="uni0237" unicode="ȷ" horiz-adv-x="750" d="M250,375h125v-125h-125ZM375,375h125v-125h-125ZM375,250h125v-125h-125ZM375,125h125v-125h-125ZM0,0h125v-125h-125ZM375,0h125v-125h-125ZM125,-125h125v-125h-125ZM250,-125h125v-125h-125Z"></glyph>
    <glyph glyph-name="uni02C6" unicode="ˆ" horiz-adv-x="750" d="M250,625h125v-125h-125ZM125,500h125v-125h-125ZM375,500h125v-125h-125Z"></glyph>
    <glyph glyph-name="uni02C7" unicode="ˇ" horiz-adv-x="750" d="M125,625h125v-125h-125ZM375,625h125v-125h-125ZM250,500h125v-125h-125Z"></glyph>
    <glyph glyph-name="uni02D8" unicode="˘" horiz-adv-x="750" d="M0,625h125v-125h-125ZM500,625h125v-125h-125ZM125,500h125v-125h-125ZM250,500h125v-125h-125ZM375,500h125v-125h-125Z"></glyph>
    <glyph glyph-name="uni02D9" unicode="˙" horiz-adv-x="750" d="M250,625h125v-125h-125Z"></glyph>
    <glyph glyph-name="uni02DA" unicode="˚" horiz-adv-x="750" d="M125,625h125v-125h-125ZM250,625h125v-125h-125ZM375,625h125v-125h-125ZM125,500h125v-125h-125ZM375,500h125v-125h-125ZM125,375h125v-125h-125ZM250,375h125v-125h-125ZM375,375h125v-125h-125Z"></glyph>
    <glyph glyph-name="uni02DB" unicode="˛" horiz-adv-x="750" d="M250,0h125v-125h-125ZM375,0h125v-125h-125ZM125,-125h125v-125h-125Z"></glyph>
    <glyph glyph-name="uni02DC" unicode="˜" horiz-adv-x="750" d="M125,625h125v-125h-125ZM500,625h125v-125h-125ZM0,500h125v-125h-125ZM250,500h125v-125h-125ZM375,500h125v-125h-125Z"></glyph>
    <glyph glyph-name="uni02DD" unicode="˝" horiz-adv-x="750" d="M250,625h125v-125h-125ZM500,625h125v-125h-125ZM125,500h125v-125h-125ZM375,500h125v-125h-125Z"></glyph>
    <glyph glyph-name="uni0300" unicode="̀" horiz-adv-x="750" d="M125,625h125v-125h-125ZM250,500h125v-125h-125Z"></glyph>
    <glyph glyph-name="uni0301" unicode="́" horiz-adv-x="750" d="M375,625h125v-125h-125ZM250,500h125v-125h-125Z"></glyph>
    <glyph glyph-name="uni0302" unicode="̂" horiz-adv-x="750" d="M250,625h125v-125h-125ZM125,500h125v-125h-125ZM375,500h125v-125h-125Z"></glyph>
    <glyph glyph-name="uni0303" unicode="̃" horiz-adv-x="750" d="M125,625h125v-125h-125ZM500,625h125v-125h-125ZM0,500h125v-125h-125ZM250,500h125v-125h-125ZM375,500h125v-125h-125Z"></glyph>
    <glyph glyph-name="uni0304" unicode="̄" horiz-adv-x="750" d="M0,625h125v-125h-125ZM125,625h125v-125h-125ZM250,625h125v-125h-125ZM375,625h125v-125h-125ZM500,625h125v-125h-125Z"></glyph>
    <glyph glyph-name="uni0306" unicode="̆" horiz-adv-x="750" d="M0,625h125v-125h-125ZM500,625h125v-125h-125ZM125,500h125v-125h-125ZM250,500h125v-125h-125ZM375,500h125v-125h-125Z"></glyph>
    <glyph glyph-name="uni0307" unicode="̇" horiz-adv-x="750" d="M250,625h125v-125h-125Z"></glyph>
    <glyph glyph-name="uni0308" unicode="̈" horiz-adv-x="750" d="M125,625h125v-125h-125ZM375,625h125v-125h-125Z"></glyph>
    <glyph glyph-name="uni030A" unicode="̊" horiz-adv-x="750" d="M125,625h125v-125h-125ZM250,625h125v-125h-125ZM375,625h125v-125h-125ZM125,500h125v-125h-125ZM375,500h125v-125h-125ZM125,375h125v-125h-125ZM250,375h125v-125h-125ZM375,375h125v-125h-125Z"></glyph>
    <glyph glyph-name="uni030B" unicode="̋" horiz-adv-x="750" d="M250,625h125v-125h-125ZM500,625h125v-125h-125ZM125,500h125v-125h-125ZM375,500h125v-125h-125Z"></glyph>
    <glyph glyph-name="uni030C" unicode="̌" horiz-adv-x="750" d="M125,625h125v-125h-125ZM375,625h125v-125h-125ZM250,500h125v-125h-125Z"></glyph>
    <glyph glyph-name="uni0326" unicode="̦" horiz-adv-x="750" d="M125,0h125v-125h-125ZM250,0h125v-125h-125ZM250,-125h125v-125h-125Z"></glyph>
    <glyph glyph-name="uni0327" unicode="̧" horiz-adv-x="750" d="M250,0h125v-125h-125ZM375,0h125v-125h-125ZM125,-125h125v-125h-125Z"></glyph>
    <glyph glyph-name="uni0328" unicode="̨" horiz-adv-x="750" d="M250,0h125v-125h-125ZM375,0h125v-125h-125ZM125,-125h125v-125h-125Z"></glyph>
    <glyph glyph-name="uni1E80" unicode="Ẁ" horiz-adv-x="750" d="M125,625h125v-125h-125ZM0,500h125v-125h-125ZM500,500h125v-125h-125ZM0,375h125v-125h-125ZM500,375h125v-125h-125ZM0,250h125v-125h-125ZM250,250h125v-125h-125ZM500,250h125v-125h-125ZM0,125h125v-125h-125ZM250,125h125v-125h-125ZM500,125h125v-125h-125ZM0,0h125v-125h-125ZM250,0h125v-125h-125ZM500,0h125v-125h-125ZM125,-125h125v-125h-125ZM375,-125h125v-125h-125Z"></glyph>
    <glyph glyph-name="uni1E81" unicode="ẁ" horiz-adv-x="750" d="M125,625h125v-125h-125ZM0,375h125v-125h-125ZM500,375h125v-125h-125ZM0,250h125v-125h-125ZM500,250h125v-125h-125ZM0,125h125v-125h-125ZM250,125h125v-125h-125ZM500,125h125v-125h-125ZM0,0h125v-125h-125ZM250,0h125v-125h-125ZM500,0h125v-125h-125ZM125,-125h125v-125h-125ZM375,-125h125v-125h-125Z"></glyph>
    <glyph glyph-name="uni1E82" unicode="Ẃ" horiz-adv-x="750" d="M375,625h125v-125h-125ZM0,500h125v-125h-125ZM500,500h125v-125h-125ZM0,375h125v-125h-125ZM500,375h125v-125h-125ZM0,250h125v-125h-125ZM250,250h125v-125h-125ZM500,250h125v-125h-125ZM0,125h125v-125h-125ZM250,125h125v-125h-125ZM500,125h125v-125h-125ZM0,0h125v-125h-125ZM250,0h125v-125h-125ZM500,0h125v-125h-125ZM125,-125h125v-125h-125ZM375,-125h125v-125h-125Z"></glyph>
    <glyph glyph-name="uni1E83" unicode="ẃ" horiz-adv-x="750" d="M375,625h125v-125h-125ZM0,375h125v-125h-125ZM500,375h125v-125h-125ZM0,250h125v-125h-125ZM500,250h125v-125h-125ZM0,125h125v-125h-125ZM250,125h125v-125h-125ZM500,125h125v-125h-125ZM0,0h125v-125h-125ZM250,0h125v-125h-125ZM500,0h125v-125h-125ZM125,-125h125v-125h-125ZM375,-125h125v-125h-125Z"></glyph>
    <glyph glyph-name="uni1E84" unicode="Ẅ" horiz-adv-x="750" d="M125,625h125v-125h-125ZM375,625h125v-125h-125ZM0,500h125v-125h-125ZM500,500h125v-125h-125ZM0,375h125v-125h-125ZM500,375h125v-125h-125ZM0,250h125v-125h-125ZM250,250h125v-125h-125ZM500,250h125v-125h-125ZM0,125h125v-125h-125ZM250,125h125v-125h-125ZM500,125h125v-125h-125ZM0,0h125v-125h-125ZM250,0h125v-125h-125ZM500,0h125v-125h-125ZM125,-125h125v-125h-125ZM375,-125h125v-125h-125Z"></glyph>
    <glyph glyph-name="uni1E85" unicode="ẅ" horiz-adv-x="750" d="M125,625h125v-125h-125ZM375,625h125v-125h-125ZM0,375h125v-125h-125ZM500,375h125v-125h-125ZM0,250h125v-125h-125ZM500,250h125v-125h-125ZM0,125h125v-125h-125ZM250,125h125v-125h-125ZM500,125h125v-125h-125ZM0,0h125v-125h-125ZM250,0h125v-125h-125ZM500,0h125v-125h-125ZM125,-125h125v-125h-125ZM375,-125h125v-125h-125Z"></glyph>
    <glyph glyph-name="uni1E9E" unicode="ẞ" horiz-adv-x="750" d="M125,625h125v-125h-125ZM250,625h125v-125h-125ZM375,625h125v-125h-125ZM0,500h125v-125h-125ZM500,500h125v-125h-125ZM0,375h125v-125h-125ZM375,375h125v-125h-125ZM0,250h125v-125h-125ZM250,250h125v-125h-125ZM0,125h125v-125h-125ZM375,125h125v-125h-125ZM0,0h125v-125h-125ZM500,0h125v-125h-125ZM0,-125h125v-125h-125ZM250,-125h125v-125h-125ZM375,-125h125v-125h-125ZM500,-125h125v-125h-125Z"></glyph>
    <glyph glyph-name="uni1EF2" unicode="Ỳ" horiz-adv-x="750" d="M125,625h125v-125h-125ZM0,500h125v-125h-125ZM500,500h125v-125h-125ZM125,375h125v-125h-125ZM375,375h125v-125h-125ZM250,250h125v-125h-125ZM250,125h125v-125h-125ZM250,0h125v-125h-125ZM250,-125h125v-125h-125Z"></glyph>
    <glyph glyph-name="uni1EF3" unicode="ỳ" horiz-adv-x="750" d="M125,625h125v-125h-125ZM0,375h125v-125h-125ZM500,375h125v-125h-125ZM0,250h125v-125h-125ZM500,250h125v-125h-125ZM125,125h125v-125h-125ZM250,125h125v-125h-125ZM375,125h125v-125h-125ZM500,125h125v-125h-125ZM500,0h125v-125h-125ZM125,-125h125v-125h-125ZM250,-125h125v-125h-125ZM375,-125h125v-125h-125Z"></glyph>
    <glyph glyph-name="uni2013" unicode="–" horiz-adv-x="750" d="M0,250h125v-125h-125ZM125,250h125v-125h-125ZM250,250h125v-125h-125ZM375,250h125v-125h-125Z"></glyph>
    <glyph glyph-name="uni2014" unicode="—" horiz-adv-x="750" d="M0,250h125v-125h-125ZM125,250h125v-125h-125ZM250,250h125v-125h-125ZM375,250h125v-125h-125ZM500,250h125v-125h-125Z"></glyph>
    <glyph glyph-name="uni2018" unicode="‘" horiz-adv-x="750" d="M250,625h125v-125h-125ZM125,500h125v-125h-125ZM250,500h125v-125h-125Z"></glyph>
    <glyph glyph-name="uni2019" unicode="’" horiz-adv-x="750" d="M125,625h125v-125h-125ZM250,625h125v-125h-125ZM250,500h125v-125h-125Z"></glyph>
    <glyph glyph-name="uni201A" unicode="‚" horiz-adv-x="750" d="M125,0h125v-125h-125ZM250,0h125v-125h-125ZM250,-125h125v-125h-125Z"></glyph>
    <glyph glyph-name="uni201C" unicode="“" horiz-adv-x="750" d="M125,625h125v-125h-125ZM375,625h125v-125h-125ZM0,500h125v-125h-125ZM250,500h125v-125h-125Z"></glyph>
    <glyph glyph-name="uni201D" unicode="”" horiz-adv-x="750" d="M0,625h125v-125h-125ZM250,625h125v-125h-125ZM125,500h125v-125h-125ZM375,500h125v-125h-125Z"></glyph>
    <glyph glyph-name="uni201E" unicode="„" horiz-adv-x="750" d="M0,0h125v-125h-125ZM250,0h125v-125h-125ZM125,-125h125v-125h-125ZM375,-125h125v-125h-125Z"></glyph>
    <glyph glyph-name="uni2022" unicode="•" horiz-adv-x="750" d="M125,250h125v-125h-125ZM250,250h125v-125h-125ZM375,250h125v-125h-125ZM125,125h125v-125h-125ZM250,125h125v-125h-125ZM375,125h125v-125h-125Z"></glyph>
    <glyph glyph-name="uni2026" unicode="…" horiz-adv-x="750" d="M0,-125h125v-125h-125ZM250,-125h125v-125h-125ZM500,-125h125v-125h-125Z"></glyph>
    <glyph glyph-name="uni2039" unicode="‹" horiz-adv-x="750" d="M250,375h125v-125h-125ZM125,250h125v-125h-125ZM250,125h125v-125h-125Z"></glyph>
    <glyph glyph-name="uni203A" unicode="›" horiz-adv-x="750" d="M250,375h125v-125h-125ZM375,250h125v-125h-125ZM250,125h125v-125h-125Z"></glyph>
    <glyph glyph-name="uni20AC" unicode="€" horiz-adv-x="750" d="M250,625h125v-125h-125ZM375,625h125v-125h-125ZM500,625h125v-125h-125ZM125,500h125v-125h-125ZM0,375h125v-125h-125ZM125,375h125v-125h-125ZM250,375h125v-125h-125ZM375,375h125v-125h-125ZM125,250h125v-125h-125ZM0,125h125v-125h-125ZM125,125h125v-125h-125ZM250,125h125v-125h-125ZM375,125h125v-125h-125ZM125,0h125v-125h-125ZM250,-125h125v-125h-125ZM375,-125h125v-125h-125ZM500,-125h125v-125h-125Z"></glyph>
    <glyph glyph-name="uni2122" unicode="™" horiz-adv-x="750" d="M0,625h125v-125h-125ZM125,625h125v-125h-125ZM250,625h125v-125h-125ZM375,625h125v-125h-125ZM500,625h125v-125h-125ZM125,500h125v-125h-125ZM375,500h125v-125h-125ZM500,500h125v-125h-125ZM125,375h125v-125h-125ZM375,375h125v-125h-125ZM500,375h125v-125h-125ZM375,250h125v-125h-125ZM500,250h125v-125h-125ZM375,125h125v-125h-125ZM500,125h125v-125h-125Z"></glyph>
    <glyph glyph-name="uni2212" unicode="−" horiz-adv-x="750" d="M0,250h125v-125h-125ZM125,250h125v-125h-125ZM250,250h125v-125h-125ZM375,250h125v-125h-125ZM500,250h125v-125h-125Z"></glyph>
    </font>
</defs>
</svg>
