<svg xmlns="http://www.w3.org/2000/svg" viewBox="0 0 44 62" fill="#ffffff">
  <rect x="0"  y="0"  width="8" height="8" rx="1"/>
  <rect x="9"  y="0"  width="8" height="8" rx="1"/>
  <rect x="18" y="0"  width="8" height="8" rx="1"/>
  <rect x="27" y="0"  width="8" height="8" rx="1"/>
  <rect x="0"  y="9"  width="8" height="8" rx="1"/>
  <rect x="36" y="9"  width="8" height="8" rx="1"/>
  <rect x="0"  y="18" width="8" height="8" rx="1"/>
  <rect x="36" y="18" width="8" height="8" rx="1"/>
  <rect x="0"  y="27" width="8" height="8" rx="1"/>
  <rect x="9"  y="27" width="8" height="8" rx="1"/>
  <rect x="18" y="27" width="8" height="8" rx="1"/>
  <rect x="27" y="27" width="8" height="8" rx="1"/>
  <rect x="0"  y="36" width="8" height="8" rx="1"/>
  <rect x="0"  y="45" width="8" height="8" rx="1"/>
  <rect x="0"  y="54" width="8" height="8" rx="1"/>
</svg>
